<?xml version="1.0" standalone="no"?>
<!DOCTYPE svg PUBLIC "-//W3C//DTD SVG 20010904//EN"
 "http://www.w3.org/TR/2001/REC-SVG-20010904/DTD/svg10.dtd">
<svg version="1.0" xmlns="http://www.w3.org/2000/svg"
 width="2400.000000pt" height="2400.000000pt" viewBox="0 0 2400.000000 2400.000000"
 preserveAspectRatio="xMidYMid meet">
<metadata>
Created by potrace 1.11, written by Peter Selinger 2001-2013
</metadata>
<g transform="translate(0.000000,2400.000000) scale(0.100000,-0.100000)"
fill="#000000" stroke="none">
<path d="M10270 23905 c-41 -8 -115 -21 -165 -29 -49 -9 -166 -34 -260 -56
-93 -23 -206 -44 -250 -47 -44 -3 -85 -9 -91 -14 -6 -5 -67 -22 -135 -38 -135
-32 -214 -60 -257 -90 -26 -19 -227 -77 -346 -101 -79 -16 -174 -52 -271 -104
-162 -87 -182 -96 -307 -135 -97 -30 -143 -51 -190 -84 -35 -25 -101 -68 -148
-96 -136 -83 -194 -126 -225 -167 -15 -22 -78 -89 -139 -151 -61 -61 -115
-116 -121 -122 -21 -23 -68 -61 -74 -61 -4 0 -15 -13 -24 -30 -17 -28 -36 -42
-104 -73 -17 -9 -34 -24 -37 -35 -4 -12 -20 -29 -37 -40 -36 -22 -111 -126
-173 -237 -58 -104 -68 -144 -55 -207 13 -57 8 -65 -56 -102 -94 -55 -185
-192 -205 -308 -13 -74 1 -313 21 -366 6 -15 8 -46 4 -69 -6 -40 -4 -44 42
-90 26 -26 61 -57 76 -68 l28 -20 -29 -40 c-43 -58 -59 -116 -72 -256 -14
-148 -8 -200 27 -237 14 -15 38 -52 53 -82 38 -75 103 -146 165 -181 l52 -29
6 -65 c8 -82 34 -141 87 -198 l41 -45 -33 -7 c-111 -24 -620 -190 -853 -277
-330 -124 -681 -286 -921 -423 -237 -137 -498 -329 -552 -407 -16 -24 -72
-128 -124 -233 -150 -299 -223 -498 -248 -676 -7 -46 -17 -90 -22 -96 -12 -15
-66 -43 -84 -43 -7 0 -18 -9 -24 -20 -6 -11 -17 -20 -25 -20 -18 0 -115 -100
-163 -168 -26 -39 -38 -68 -42 -105 -5 -50 -6 -52 -62 -84 -70 -41 -131 -109
-153 -171 -11 -31 -18 -92 -21 -177 -2 -71 -6 -136 -9 -143 -6 -17 40 -87 72
-107 l24 -16 -26 -25 c-34 -32 -60 -91 -79 -186 -20 -96 -20 -118 -1 -145 9
-12 22 -41 30 -64 19 -53 76 -131 109 -149 23 -12 26 -19 26 -72 0 -32 6 -74
14 -92 19 -46 75 -99 150 -142 57 -33 65 -41 70 -76 7 -41 66 -142 100 -170
12 -9 43 -29 70 -44 45 -25 54 -26 131 -20 80 6 83 5 113 -22 16 -15 45 -36
63 -47 17 -11 40 -35 50 -54 l19 -35 92 -2 c81 -2 116 2 206 27 9 3 19 -14 28
-50 14 -54 37 -94 81 -142 l25 -27 -18 -102 c-21 -130 -15 -292 16 -400 104
-364 465 -591 1038 -651 64 -7 118 -13 120 -14 1 -1 -21 -50 -48 -109 -125
-264 -180 -443 -187 -611 -9 -190 30 -300 145 -415 130 -129 292 -182 566
-181 88 0 188 3 223 7 l63 6 0 -173 c0 -190 10 -305 40 -447 71 -337 239 -609
499 -806 215 -161 440 -262 880 -392 234 -69 433 -134 445 -145 5 -4 -14 -52
-43 -107 -183 -358 -187 -668 -12 -937 217 -333 746 -548 1408 -572 l171 -6
17 -96 c150 -853 561 -1435 1249 -1770 361 -176 644 -248 1390 -351 120 -17
222 -32 226 -35 4 -2 10 -60 13 -127 14 -286 100 -552 238 -739 60 -81 185
-202 265 -256 197 -134 432 -215 889 -307 285 -57 405 -86 405 -96 0 -4 -18
-61 -39 -126 -65 -195 -76 -264 -76 -474 0 -169 3 -193 27 -280 30 -108 79
-221 132 -304 24 -38 32 -58 24 -61 -225 -69 -446 -154 -572 -217 -408 -205
-616 -473 -616 -793 l0 -92 -62 -44 c-209 -146 -462 -380 -561 -520 -56 -80
-111 -193 -132 -274 -19 -75 -19 -203 0 -275 37 -140 149 -292 311 -421 l64
-51 0 -56 c0 -32 5 -111 11 -177 32 -370 153 -616 391 -795 100 -76 218 -133
428 -209 91 -32 187 -68 213 -80 78 -34 163 -46 236 -33 126 22 215 80 266
174 54 97 36 214 -60 408 -75 151 -98 218 -93 272 12 120 134 275 283 358 217
120 349 229 476 393 116 150 249 381 350 607 23 52 53 111 67 131 25 34 31 37
136 57 305 58 620 183 844 334 102 69 242 206 302 294 99 149 142 325 119 485
-15 108 -16 103 15 177 17 38 30 92 34 138 l7 76 107 38 c400 140 661 370 734
643 18 69 18 218 -1 292 -36 142 -121 277 -261 419 -65 65 -240 206 -293 236
-12 6 -8 23 21 96 55 137 73 230 71 369 -1 135 -21 227 -76 354 -101 233 -342
473 -648 646 l-118 67 59 74 c99 125 160 242 195 374 23 87 24 244 1 330 -92
353 -444 635 -1046 837 -91 31 -167 57 -169 59 -2 1 25 34 59 72 198 222 305
427 317 612 15 235 -102 420 -410 650 -25 19 -47 38 -47 41 0 4 19 19 43 34
357 235 613 553 733 910 59 178 75 275 81 511 l6 211 81 17 c129 28 370 111
495 171 451 217 700 550 809 1080 35 167 64 403 92 733 0 1 8 2 18 2 9 0 83
22 163 49 358 120 580 283 693 507 133 265 80 577 -159 930 -37 53 -62 100
-58 104 4 4 55 39 113 78 367 248 591 571 656 946 23 131 14 364 -19 506 -57
243 -185 496 -356 704 -105 128 -101 106 -34 183 32 38 79 96 105 129 31 41
66 73 102 93 33 18 62 43 71 61 9 16 22 30 30 30 8 0 15 7 15 16 0 24 38 82
58 88 19 7 40 39 94 145 21 41 50 92 64 113 27 39 54 129 54 184 0 17 8 42 19
55 69 89 93 196 87 381 l-4 140 26 23 25 22 -21 45 c-25 50 -27 65 -11 70 15
5 51 243 45 293 -3 22 -25 85 -49 140 -38 86 -45 116 -55 213 -7 72 -22 144
-41 200 -16 48 -32 114 -36 147 -3 33 -18 95 -32 137 -23 70 -32 83 -97 145
-187 177 -310 275 -376 304 -14 6 -35 20 -47 31 -18 17 -43 23 -128 30 -64 5
-122 16 -151 28 -58 25 -210 60 -484 111 -159 30 -258 42 -380 49 -91 4 -181
13 -200 19 -89 28 -349 2 -622 -63 -59 -14 -131 -28 -160 -30 -74 -7 -275 -63
-323 -90 -22 -13 -92 -36 -155 -51 -172 -41 -206 -53 -307 -105 -51 -27 -137
-62 -190 -79 -55 -17 -123 -48 -155 -69 -31 -20 -95 -61 -143 -91 -48 -30 -96
-67 -108 -83 l-22 -27 -160 14 c-187 16 -581 41 -885 56 -118 5 -482 13 -807
16 l-593 6 0 44 c0 24 -5 76 -12 114 -8 53 -8 73 0 81 15 15 16 65 2 73 -16
10 -12 20 25 58 38 39 43 63 20 93 -8 10 -19 36 -25 57 -10 33 -8 41 10 64 11
14 20 39 20 55 0 16 10 90 21 166 25 159 22 224 -14 308 -105 249 -104 247
-111 339 -12 157 -27 237 -66 355 -25 75 -42 151 -49 215 -10 86 -27 155 -74
287 -10 31 -215 233 -276 274 -22 14 -43 35 -46 45 -4 11 -31 38 -61 60 -30
22 -54 44 -54 50 0 5 -17 17 -37 26 -21 8 -57 31 -81 50 -24 19 -61 45 -82 57
-21 11 -57 34 -80 50 -37 27 -52 30 -183 42 -113 10 -154 17 -200 38 -67 30
-328 95 -531 132 -78 14 -159 29 -181 34 -175 39 -356 62 -545 69 -144 5 -212
12 -230 21 -37 21 -351 24 -450 5z m495 -128 l80 -12 0 -38 c0 -69 40 -74 135
-18 99 59 134 61 331 16 193 -44 208 -50 150 -60 -27 -4 -47 -3 -54 4 -16 16
-52 14 -67 -4 -9 -11 -34 -15 -96 -15 -60 0 -87 -4 -98 -15 -8 -8 -25 -15 -38
-15 -59 2 -79 0 -173 -9 -94 -9 -232 -37 -300 -62 -16 -6 -102 -45 -189 -87
l-160 -77 -155 -6 c-86 -4 -172 -12 -191 -17 -19 -6 -116 -25 -215 -42 -217
-38 -340 -83 -453 -166 -41 -30 -82 -54 -92 -54 -10 0 -44 -18 -76 -40 -202
-139 -295 -198 -339 -214 -71 -26 -162 -78 -219 -125 -26 -23 -57 -41 -67 -41
-27 0 -94 -72 -135 -147 -20 -35 -52 -83 -71 -106 -73 -86 -209 -305 -372
-597 -30 -55 -56 -86 -93 -114 -60 -44 -63 -43 -146 33 l-52 48 -2 79 c-4 128
1 162 26 212 13 26 45 112 72 191 43 130 54 152 107 218 32 40 95 106 140 146
44 40 119 108 167 152 81 75 264 215 320 245 25 14 283 90 288 86 1 -2 -5 -22
-13 -46 -20 -56 -19 -83 3 -110 30 -37 56 -19 96 64 38 78 108 153 276 291 80
66 91 73 185 98 55 15 134 34 175 43 93 21 145 65 156 132 7 46 8 46 132 73
61 13 43 23 176 -99 86 -79 116 -93 155 -71 44 25 39 60 -14 105 -26 21 -64
55 -84 76 l-38 36 31 7 c44 9 266 35 301 35 l29 0 -39 -41 c-22 -23 -58 -49
-80 -59 -53 -23 -69 -43 -61 -76 12 -48 59 -58 246 -50 93 4 176 12 190 19 29
14 38 48 16 66 -11 9 -121 26 -206 31 -15 1 108 110 125 111 11 0 40 6 65 13
57 17 115 18 215 3z m-1317 -181 c-20 -14 -186 -52 -194 -43 -14 14 115 54
181 56 27 0 28 -1 13 -13z m2417 -65 c132 -8 164 -7 187 5 25 13 31 13 53 -2
13 -8 29 -13 34 -9 6 3 36 -2 66 -11 46 -13 54 -18 41 -27 -8 -7 -35 -55 -60
-108 -51 -109 -100 -161 -168 -179 -66 -18 -97 -57 -69 -85 6 -6 5 -17 -3 -28
-12 -16 -19 -11 -81 55 -37 40 -78 90 -91 111 -14 20 -29 37 -34 37 -6 0 -25
14 -43 31 -17 17 -51 45 -74 62 -24 17 -43 36 -43 43 0 25 -60 64 -98 64 -37
0 -37 1 21 24 33 14 61 26 63 29 3 2 35 3 72 0 37 -2 139 -7 227 -12z m663
-80 c62 -31 145 -119 140 -149 -1 -9 3 -31 11 -49 13 -31 11 -95 -4 -140 -8
-24 14 -50 105 -124 l45 -36 5 -161 5 -161 35 -35 c39 -39 74 -46 90 -17 13
26 13 88 -1 97 -11 7 -7 119 5 131 2 3 17 -4 33 -15 43 -30 69 -35 87 -17 9 9
16 20 16 25 0 15 -93 120 -194 220 l-96 95 0 72 c0 59 3 73 15 73 17 0 275
-253 275 -270 0 -6 25 -37 55 -70 98 -106 146 -239 111 -305 -23 -44 -20 -75
14 -141 17 -32 39 -85 50 -117 17 -53 17 -58 2 -52 -9 3 -51 20 -94 37 -68 28
-75 33 -65 49 18 29 -2 73 -35 77 -30 4 -52 -25 -42 -52 11 -29 -30 -12 -84
36 -31 27 -36 28 -55 15 -14 -9 -23 -27 -25 -49 -3 -31 3 -40 42 -75 25 -22
76 -55 113 -73 37 -17 93 -45 123 -60 30 -15 72 -30 93 -34 36 -7 53 -26 22
-26 -22 0 -19 -53 4 -74 10 -9 25 -14 35 -10 20 8 20 14 1 -266 -10 -152 -20
-238 -36 -295 -31 -114 -33 -134 -19 -160 7 -13 18 -54 24 -92 10 -61 14 -68
35 -71 15 -3 30 3 37 13 11 15 14 15 25 -7 30 -54 4 -198 -36 -198 -21 0 -45
-40 -45 -75 0 -22 -10 -38 -38 -61 -88 -73 -127 -79 -248 -32 l-83 31 -6 56
c-3 31 -10 70 -15 87 -7 21 -7 40 0 58 12 34 13 475 0 605 -11 119 -19 128
-153 171 -56 19 -114 41 -129 50 l-26 16 34 54 c61 98 78 153 77 265 -1 137
-34 280 -77 332 -66 79 -85 94 -106 83 -29 -15 -26 -68 10 -175 24 -72 30
-105 30 -176 0 -116 -22 -185 -126 -389 -94 -184 -131 -303 -141 -451 -7 -102
12 -182 52 -219 23 -22 36 -25 96 -25 74 0 89 8 89 53 0 17 -12 28 -57 50 -51
24 -58 31 -65 66 -16 78 29 283 74 336 34 39 163 34 267 -11 l43 -19 -6 -102
c-22 -335 -25 -550 -9 -651 14 -96 13 -217 -3 -274 -6 -22 -11 -23 -99 -23
-50 0 -139 -3 -197 -6 l-106 -7 -7 44 c-11 67 -41 140 -87 210 -56 87 -112
209 -137 298 -11 41 -29 84 -40 95 -11 12 -37 60 -59 108 -22 47 -48 91 -59
96 -34 18 -51 -3 -58 -72 -6 -52 -3 -72 13 -109 17 -38 18 -46 6 -51 -25 -10
-15 -52 36 -151 49 -97 133 -224 223 -338 47 -59 63 -94 55 -119 -3 -9 -52
-16 -174 -24 -167 -10 -169 -10 -194 12 -55 48 -102 57 -120 24 -6 -12 -9 -29
-5 -39 5 -16 -4 -19 -101 -24 -59 -4 -109 -5 -111 -3 -2 2 19 47 47 99 43 80
52 107 57 164 8 96 -10 170 -57 237 -64 91 -64 89 -28 132 45 57 82 143 122
289 19 72 49 170 66 219 16 50 30 97 30 107 0 25 -36 65 -94 104 -59 39 -168
158 -257 282 -54 75 -63 94 -100 224 -59 212 -145 381 -208 414 -16 8 -54 48
-85 90 -44 57 -63 75 -81 75 -30 0 -45 -26 -45 -78 0 -45 21 -77 136 -211 79
-91 131 -185 159 -286 l17 -60 -32 -82 c-42 -109 -75 -152 -162 -211 -128 -86
-195 -120 -331 -171 -155 -58 -396 -131 -401 -122 -11 18 -36 119 -36 146 0
24 8 37 39 60 52 41 127 130 152 183 20 40 21 55 16 171 -9 207 -47 328 -96
302 -10 -6 -22 -18 -26 -28 -4 -10 -9 -109 -12 -221 l-6 -203 -170 -165 c-184
-178 -220 -203 -345 -235 -107 -27 -320 -27 -393 1 -58 22 -184 115 -338 250
-130 114 -144 124 -176 116 -39 -10 -43 -49 -9 -97 33 -49 253 -260 306 -296
21 -14 40 -33 43 -43 3 -9 16 -22 30 -28 29 -13 53 -85 62 -182 7 -79 -6 -108
-99 -233 -96 -129 -101 -144 -96 -313 2 -79 2 -144 0 -144 -2 0 -17 9 -32 20
-92 66 -260 117 -411 127 -125 8 -152 2 -234 -52 -37 -25 -71 -45 -74 -45 -4
0 -5 15 -3 33 8 66 -83 119 -98 57 -6 -27 -7 -27 -45 43 -33 62 -257 317 -284
324 -34 8 -55 -9 -59 -46 -4 -37 18 -74 108 -185 72 -88 112 -161 139 -250 34
-109 30 -127 -35 -188 -144 -135 -215 -208 -224 -232 -15 -39 20 -122 72 -173
46 -44 132 -101 186 -123 18 -7 31 -14 30 -16 -2 -1 -98 -23 -213 -48 -116
-25 -284 -64 -375 -85 -123 -30 -166 -37 -172 -28 -4 7 -18 37 -30 67 -18 44
-22 73 -21 147 2 81 5 100 29 144 56 103 77 109 275 87 116 -13 139 -7 139 34
0 33 -42 63 -145 102 -147 57 -159 65 -183 138 -15 43 -22 94 -24 158 -3 84 0
101 22 145 13 28 25 55 26 62 14 90 123 278 222 384 l67 70 171 64 c191 72
269 88 516 107 l157 12 26 -24 c31 -29 32 -32 49 -165 11 -81 19 -113 32 -122
26 -19 42 -16 60 12 25 38 17 287 -11 333 -34 57 -83 72 -227 72 -157 0 -405
-17 -506 -35 -42 -7 -78 -12 -79 -11 -1 1 17 31 41 67 37 55 145 240 234 399
35 62 237 258 314 303 74 44 198 94 271 108 29 6 134 12 234 14 l182 4 30 -62
c16 -34 32 -78 35 -98 4 -21 13 -42 20 -48 8 -7 17 -32 21 -58 9 -62 23 -90
48 -97 31 -8 45 10 52 67 10 81 -10 292 -29 323 -33 49 -19 74 64 115 140 68
335 119 461 119 79 0 74 10 84 -155 8 -117 15 -135 54 -135 40 0 51 37 51 166
0 57 3 103 8 102 24 -7 73 14 81 34 20 54 -15 81 -119 93 -36 4 -88 13 -116
20 -77 20 -200 29 -208 16 -4 -6 -24 -11 -45 -11 -21 0 -44 -6 -50 -14 -6 -7
-24 -16 -39 -19 -16 -3 -88 -33 -161 -66 -72 -34 -135 -61 -140 -61 -4 0 -25
-15 -47 -33 -38 -33 -43 -34 -150 -40 -99 -6 -164 -15 -229 -33 -19 -6 43 36
150 101 27 17 71 51 97 78 27 26 54 47 61 47 7 0 63 25 123 55 60 30 147 66
194 80 200 60 560 112 600 87 24 -15 67 -16 75 -1 4 6 13 8 19 6 7 -3 28 2 47
10 106 46 165 77 176 91 15 19 16 17 37 -91 17 -83 42 -147 58 -147 5 0 7 -8
3 -19 -12 -40 17 -163 71 -288 30 -71 61 -140 69 -154 17 -30 12 -68 -24 -199
-25 -89 -26 -123 -5 -144 39 -39 60 -13 115 144 45 130 49 177 15 234 -13 23
-35 71 -50 107 -32 81 -95 394 -103 515 l-6 91 47 22 c44 22 55 23 258 19 234
-4 262 -10 444 -93 92 -42 247 -182 281 -254 16 -34 38 -58 68 -78 45 -29 166
-159 190 -203 7 -14 16 -50 20 -80 4 -30 13 -67 20 -82 7 -15 16 -47 20 -70 4
-24 15 -72 26 -107 23 -76 23 -82 3 -53 -8 12 -23 22 -33 22 -33 0 -44 -26
-39 -90 4 -51 11 -70 46 -120 23 -32 42 -70 42 -84 0 -14 -11 -101 -25 -193
-14 -92 -23 -178 -20 -190 3 -12 15 -28 26 -34 52 -27 109 51 109 150 0 34 6
74 14 90 20 38 40 267 32 379 -6 101 -26 188 -61 272 -13 30 -33 108 -44 174
-21 117 -42 176 -62 176 -6 0 -8 11 -4 29 4 17 1 38 -6 49 -16 25 -6 39 67 92
42 32 66 64 144 198 79 133 100 162 125 170 46 15 51 14 113 -17z m-3511 -16
c-12 -19 -39 -42 -59 -51 -20 -10 -39 -27 -42 -38 -13 -44 -52 -75 -106 -82
l-52 -7 17 26 c35 54 -16 97 -61 52 -28 -28 -30 -47 -9 -68 13 -14 4 -19 -75
-45 l-90 -31 0 23 c0 13 -3 37 -6 55 -6 27 -3 32 22 41 16 6 45 19 64 29 19
11 62 27 95 36 33 10 65 21 71 26 10 8 213 65 241 68 7 1 3 -13 -10 -34z
m-261 -152 c-3 -4 -13 2 -21 13 -22 29 -18 41 6 15 12 -12 18 -25 15 -28z
m-324 -61 c3 -9 2 -25 -1 -33 -9 -25 -334 -239 -345 -228 -15 14 -52 11 -66
-6 -7 -8 -10 -26 -8 -40 4 -20 -7 -35 -68 -90 -41 -37 -74 -62 -74 -57 0 5 7
29 15 53 10 26 15 71 14 110 -1 36 1 71 5 77 10 17 183 122 246 150 30 13 80
31 110 39 30 9 75 22 100 29 61 17 67 17 72 -4z m-375 -296 c-21 -21 -27 -20
-27 3 0 21 20 33 34 20 5 -4 2 -14 -7 -23z m-266 -38 c-12 -36 -71 -97 -235
-243 -100 -89 -136 -100 -76 -24 18 22 77 78 131 125 55 47 109 103 122 124
19 34 55 64 65 54 2 -1 -1 -18 -7 -36z m-102 -310 c-59 -74 -110 -190 -155
-347 l-38 -134 -72 -73 c-40 -41 -77 -74 -83 -74 -18 0 -41 -31 -41 -55 0 -13
9 -30 19 -37 11 -8 25 -36 32 -62 8 -33 19 -51 35 -58 31 -14 50 2 66 53 6 22
14 39 18 39 3 0 11 -21 18 -46 15 -57 114 -161 161 -170 l31 -7 -35 -38 c-40
-44 -104 -140 -166 -249 -47 -84 -100 -140 -131 -140 -11 0 -35 -16 -54 -35
-18 -19 -35 -35 -38 -35 -2 0 -28 -14 -56 -32 l-51 -31 -70 33 c-54 27 -74 32
-87 24 -30 -19 -25 -50 13 -93 30 -32 36 -46 31 -66 -18 -72 47 -85 140 -29
77 47 187 104 192 100 2 -2 -9 -59 -24 -126 l-27 -123 21 -64 c16 -47 19 -69
12 -83 -5 -10 -9 -56 -8 -102 l2 -83 -70 -115 -70 -115 -40 1 c-29 0 -56 11
-98 39 -68 45 -155 149 -156 185 0 15 -20 51 -50 88 l-51 62 21 86 c22 96 63
205 91 246 36 50 26 79 -46 143 -65 56 -107 116 -119 166 -3 14 -10 78 -16
141 -9 104 -8 121 9 171 38 109 170 276 253 318 66 34 68 53 14 142 -36 60
-32 95 21 174 55 83 257 290 261 268 2 -9 -44 -88 -102 -175 l-105 -158 1 -80
c1 -72 -2 -85 -31 -137 -37 -65 -41 -83 -50 -216 -6 -91 -8 -99 -42 -140 -50
-61 -72 -107 -65 -135 8 -31 44 -39 89 -20 l36 15 68 -54 c71 -57 131 -78 158
-55 26 22 17 40 -57 116 l-71 74 12 128 c7 73 23 157 36 197 13 39 36 113 51
165 16 52 36 100 45 107 9 7 19 34 23 62 9 71 90 174 278 355 83 80 153 146
155 146 2 0 -15 -24 -38 -52z m5471 -158 c-12 -22 -50 -27 -50 -7 0 20 10 27
37 27 21 0 22 -3 13 -20z m-1743 -362 c45 -76 140 -182 236 -264 48 -41 48
-66 -4 -196 -22 -56 -50 -144 -63 -195 -17 -70 -28 -97 -45 -109 -22 -16 -25
-14 -99 63 -83 85 -274 245 -316 264 -49 23 -74 -30 -39 -81 15 -22 149 -175
420 -477 115 -129 131 -186 80 -288 -18 -36 -119 -196 -138 -219 -6 -7 -369
-45 -441 -46 -13 0 -9 13 22 66 21 37 53 101 70 144 l31 77 -36 74 c-19 40
-35 78 -35 85 0 16 -31 41 -60 49 -19 4 -31 1 -44 -14 -18 -20 -18 -23 8 -99
44 -132 35 -167 -78 -289 -90 -97 -120 -113 -238 -128 -210 -27 -218 -27 -218
-15 0 20 -83 138 -176 250 -133 161 -134 164 -150 287 -18 139 -32 177 -99
279 -59 88 -83 109 -115 99 -46 -15 -27 -88 53 -204 28 -40 31 -55 43 -185 7
-78 18 -157 25 -176 15 -44 63 -111 108 -153 69 -64 166 -169 179 -193 16 -31
28 -27 -193 -54 -160 -19 -552 -71 -645 -86 l-35 -6 4 53 c2 38 9 57 24 69 19
16 20 20 7 81 -7 35 -33 136 -57 224 -63 228 -66 247 -47 306 10 30 23 51 36
55 15 4 19 13 17 39 -3 25 5 43 31 76 19 24 53 71 75 103 42 63 145 157 229
210 28 18 92 50 141 71 138 58 165 74 229 132 33 29 64 52 70 50 5 -2 16 -25
23 -51 9 -31 21 -50 33 -53 12 -3 21 -18 25 -43 8 -50 105 -149 207 -213 43
-27 109 -78 147 -113 67 -62 71 -68 102 -162 33 -102 51 -132 79 -132 33 0 39
23 37 147 -2 112 -4 122 -29 159 -44 63 -177 189 -262 248 -77 54 -78 55 -50
61 126 27 410 144 592 243 155 84 236 147 240 186 3 25 28 76 37 76 2 0 25
-37 52 -82z m1958 61 c0 -8 -12 -15 -27 -17 -31 -4 -37 12 -10 27 21 13 37 9
37 -10z m122 -599 c-4 -107 -19 -181 -34 -166 -3 3 0 88 7 188 12 154 15 176
23 138 4 -25 6 -97 4 -160z m-3909 95 c3 -3 -8 -20 -26 -37 -17 -18 -33 -30
-35 -27 -3 2 -8 22 -11 43 l-7 39 37 -6 c20 -3 39 -9 42 -12z m-195 -461 c7
-8 -3 -34 -13 -34 -5 0 -8 9 -7 20 1 20 8 25 20 14z m8893 -11 c7 -2 14 -17
16 -31 4 -38 33 -39 102 -2 70 36 83 37 224 5 61 -14 114 -25 117 -25 3 0 3
-4 0 -10 -8 -14 -48 -13 -63 2 -8 8 -15 8 -24 1 -7 -6 -42 -13 -77 -17 -35 -3
-69 -10 -75 -14 -9 -7 -61 -12 -171 -15 -50 -1 -205 -50 -319 -101 -117 -53
-128 -56 -204 -56 -44 0 -110 -7 -148 -14 -38 -8 -121 -24 -185 -35 -128 -23
-221 -57 -289 -105 -25 -18 -58 -38 -75 -45 -16 -7 -76 -44 -132 -82 -56 -38
-135 -83 -174 -99 -40 -16 -89 -42 -109 -59 -20 -16 -52 -36 -71 -44 -34 -14
-70 -54 -103 -112 -9 -16 -40 -60 -69 -97 -48 -61 -159 -236 -225 -355 -38
-69 -42 -75 -84 -105 l-36 -28 -48 44 -48 43 -4 75 c-3 60 0 83 16 114 10 21
32 77 47 124 15 47 38 103 50 125 35 62 258 267 394 364 69 49 101 64 179 86
52 14 97 24 99 21 3 -3 0 -20 -6 -39 -13 -38 -7 -62 16 -71 21 -8 33 1 49 41
19 45 79 109 180 194 78 65 84 68 190 94 166 40 181 49 197 116 5 21 16 29 51
38 72 18 89 14 131 -29 22 -22 56 -52 77 -67 33 -22 42 -24 63 -15 38 18 30
43 -31 96 -40 35 -52 51 -42 56 11 7 184 30 219 30 20 0 -43 -60 -78 -75 -39
-17 -44 -46 -11 -69 41 -29 282 -16 302 16 16 27 -2 38 -77 45 -37 3 -67 9
-67 13 0 18 63 62 106 75 46 13 184 12 220 -2z m-11545 -76 c-1 -12 -15 -9
-19 4 -3 6 1 10 8 8 6 -3 11 -8 11 -12z m10566 -41 c-10 -8 -39 -17 -65 -21
-26 -3 -56 -8 -67 -11 l-20 -5 20 12 c20 13 107 37 135 38 12 0 11 -3 -3 -13z
m1708 -45 c61 -5 117 -4 127 0 14 8 121 -6 139 -17 11 -6 -61 -136 -94 -171
-17 -18 -45 -36 -64 -39 -39 -7 -54 -23 -51 -54 5 -43 -20 -31 -77 37 -32 37
-81 87 -109 110 -28 23 -55 46 -59 51 -39 44 -50 52 -74 53 -26 0 -26 2 12 19
44 21 88 22 250 11z m456 -50 c53 -24 104 -75 114 -116 4 -16 8 -58 9 -92 1
-61 2 -63 44 -94 51 -37 62 -62 55 -117 -10 -73 5 -150 35 -177 33 -30 48 -31
62 -4 8 15 8 29 1 51 -13 37 -14 68 -3 86 7 10 15 9 40 -4 17 -8 36 -13 42 -9
25 15 3 50 -90 144 -103 103 -110 117 -94 178 6 21 11 18 80 -43 126 -113 244
-272 244 -329 0 -16 -4 -46 -10 -65 -9 -30 -6 -43 19 -95 16 -33 33 -73 36
-87 l7 -27 -64 25 c-59 24 -63 27 -63 57 0 27 -4 32 -25 32 -17 0 -26 -6 -28
-20 -3 -16 -1 -18 9 -7 16 15 39 16 39 0 0 -6 -3 -8 -6 -5 -4 3 -15 2 -24 -3
-13 -7 -27 -3 -54 15 -45 30 -62 31 -76 5 -12 -23 0 -46 41 -79 29 -23 182
-95 223 -105 26 -6 27 -8 11 -20 -25 -18 -3 -60 27 -53 18 5 19 2 15 -26 -3
-18 -9 -86 -12 -152 -4 -66 -16 -158 -27 -204 -16 -69 -18 -91 -9 -121 6 -21
11 -49 11 -62 0 -35 26 -55 50 -40 15 9 19 7 24 -11 14 -51 6 -89 -22 -115
-16 -15 -32 -40 -36 -55 -9 -36 -50 -73 -96 -88 -30 -9 -45 -7 -100 14 l-65
24 -8 49 c-4 27 -6 67 -5 89 7 92 -3 442 -13 472 -8 26 -20 36 -65 53 -30 11
-60 20 -67 20 -7 1 -27 9 -44 18 l-33 17 29 44 c43 64 55 119 48 214 -7 97
-26 155 -68 208 -32 41 -63 50 -73 22 -4 -9 5 -52 20 -96 22 -67 26 -92 22
-155 -5 -69 -11 -87 -77 -216 -42 -84 -79 -173 -91 -220 -34 -134 -22 -248 28
-275 30 -16 97 -14 112 4 18 21 8 37 -36 60 l-39 20 1 80 c0 63 6 90 25 130
30 61 64 74 150 56 96 -20 92 -5 79 -253 -9 -165 -8 -237 1 -299 14 -95 8
-168 -21 -261 -20 -65 -61 -128 -82 -128 -6 0 -38 -14 -71 -31 -131 -66 -259
-101 -319 -86 -34 9 -56 54 -72 146 -17 94 -39 138 -83 163 -59 35 -86 -1 -43
-58 33 -47 50 -101 50 -169 0 -27 7 -63 15 -79 19 -36 11 -66 -43 -153 -29
-47 -55 -74 -108 -109 -38 -26 -118 -85 -179 -131 -80 -61 -127 -89 -170 -102
-68 -21 -251 -48 -261 -38 -4 4 3 29 15 56 36 84 24 207 -31 314 -15 29 -24
38 -41 35 -31 -4 -33 -50 -7 -134 18 -60 19 -69 5 -76 -17 -10 -21 -73 -5 -83
14 -8 -11 -65 -60 -136 -22 -32 -40 -63 -40 -67 0 -21 -61 -94 -132 -159 -61
-56 -82 -70 -99 -66 -15 4 -26 0 -35 -12 -12 -16 -23 -17 -87 -12 -72 6 -74 6
-137 -33 -36 -22 -73 -40 -82 -40 -10 0 -68 12 -129 26 l-111 26 7 37 c8 43
44 108 77 137 31 29 220 124 244 124 27 0 44 19 44 49 0 14 10 35 22 49 20 20
23 38 28 127 3 57 7 105 10 107 3 2 17 9 32 16 17 7 56 54 108 132 85 127 115
155 207 186 50 17 54 17 125 0 40 -9 121 -26 180 -36 59 -10 122 -27 140 -37
30 -17 35 -28 58 -118 25 -98 42 -124 73 -112 12 5 15 33 18 161 l4 155 33 33
c17 19 32 41 32 50 0 8 6 21 14 27 7 6 37 57 66 113 51 100 52 103 48 178 -3
69 -6 80 -41 127 l-38 52 34 49 c18 27 43 82 55 123 13 41 38 121 56 179 37
115 36 124 -16 162 -52 38 -138 128 -193 203 -39 53 -57 90 -74 150 -44 153
-104 273 -148 294 -12 5 -40 35 -63 65 -41 57 -57 65 -78 44 -32 -32 -10 -83
82 -188 65 -74 118 -176 120 -230 0 -22 -12 -62 -32 -103 -34 -69 -66 -97
-192 -169 -72 -41 -403 -153 -420 -143 -5 3 -14 29 -21 58 l-11 53 60 58 c87
83 96 106 89 235 -7 131 -24 186 -58 186 -24 0 -24 -1 -34 -154 l-10 -154
-123 -118 c-152 -146 -182 -160 -351 -167 -70 -3 -129 0 -152 7 -41 12 -156
94 -259 186 -82 72 -105 84 -126 63 -10 -9 -14 -24 -10 -35 6 -20 149 -162
249 -247 62 -54 77 -86 77 -172 0 -46 -5 -58 -60 -133 -75 -105 -84 -133 -77
-240 l5 -86 -76 38 c-48 23 -107 43 -157 52 -128 23 -163 20 -240 -21 -37 -20
-65 -30 -63 -22 8 21 -21 68 -42 68 -10 0 -23 -8 -29 -17 -9 -16 -11 -15 -20
9 -11 29 -184 234 -204 241 -21 7 -47 -13 -47 -36 0 -25 13 -46 77 -125 51
-63 88 -132 104 -196 15 -61 6 -79 -77 -145 -91 -73 -118 -112 -110 -157 9
-45 61 -103 123 -136 27 -15 107 -47 178 -73 101 -35 142 -45 185 -44 75 2
103 -8 223 -81 82 -50 83 -80 2 -56 -43 13 -57 -25 -40 -104 6 -28 5 -28 -77
-55 -96 -32 -108 -40 -108 -70 0 -36 -84 -67 -196 -73 -90 -4 -92 -4 -125 26
-31 28 -33 32 -20 55 16 31 25 30 87 -10 78 -51 153 -69 169 -43 15 24 -11 53
-88 95 -45 26 -109 71 -142 101 l-60 54 25 20 c14 12 33 28 43 35 24 21 21 44
-8 55 -29 11 -57 1 -144 -55 -59 -37 -124 -55 -206 -55 -48 0 -58 4 -88 34
-74 73 -119 190 -107 273 4 24 20 63 36 86 26 36 35 42 71 45 23 2 70 -1 105
-5 82 -11 98 -7 98 23 0 29 -22 44 -114 79 -38 14 -76 31 -83 37 -23 19 -40
69 -47 143 -5 58 -3 76 12 107 10 20 25 57 32 83 15 53 87 168 146 233 33 36
58 50 159 89 126 48 216 66 391 78 102 7 102 7 119 -18 9 -14 21 -59 27 -99
10 -75 20 -98 44 -98 27 0 36 41 32 137 -4 85 -6 96 -31 120 -20 20 -40 28
-83 33 -71 8 -363 -5 -424 -19 -24 -5 -46 -8 -48 -7 -2 2 21 41 51 87 29 46
75 122 101 169 34 61 72 108 133 168 148 144 238 181 462 189 l146 5 23 -43
c12 -24 22 -54 22 -65 0 -12 7 -27 15 -34 8 -7 15 -23 15 -36 0 -44 18 -76 43
-72 21 3 22 6 22 130 0 88 -4 131 -12 140 -24 23 -14 47 30 70 73 39 258 88
333 88 59 0 64 -7 64 -97 0 -68 14 -103 40 -103 25 0 27 5 35 101 6 72 8 76
36 86 21 8 29 18 29 37 0 13 -4 28 -10 31 -5 3 -65 15 -132 26 -67 11 -124 22
-128 24 -5 3 -77 -15 -115 -29 -104 -39 -246 -102 -270 -120 -24 -18 -49 -24
-120 -29 -49 -4 -103 -10 -120 -13 -27 -5 -28 -4 -10 7 58 34 133 86 160 111
17 15 50 34 75 43 24 9 60 25 79 36 97 57 483 130 537 101 23 -12 122 16 190
54 l42 23 16 -71 c9 -39 21 -77 28 -85 6 -8 13 -37 15 -66 3 -33 23 -95 55
-171 l51 -118 -22 -94 c-18 -76 -21 -98 -11 -109 30 -36 47 -16 86 98 29 84
30 130 6 165 -10 15 -26 47 -35 72 -20 56 -64 275 -69 353 -5 56 -4 59 25 73
24 13 60 15 191 12 154 -4 165 -6 250 -38 73 -27 103 -45 166 -101 42 -37 83
-81 90 -98 7 -17 28 -40 46 -52 19 -11 59 -50 88 -85 44 -51 56 -73 62 -111 3
-27 10 -52 14 -58 4 -5 12 -35 18 -65 6 -30 13 -62 17 -70 4 -12 -1 -16 -22
-15 -26 0 -28 -3 -31 -41 -2 -33 4 -50 32 -91 l35 -51 -20 -133 c-10 -73 -17
-141 -13 -151 8 -28 50 -23 71 9 10 14 21 52 25 82 3 31 11 76 17 101 24 107
6 363 -30 406 -5 6 -18 55 -29 109 -11 55 -26 108 -34 120 -23 36 -28 84 -8
100 9 7 31 25 47 38 17 14 59 73 93 132 37 62 72 110 85 115 12 5 23 9 23 9 1
1 21 -8 45 -18z m-2471 -20 c-11 -17 -28 -32 -38 -36 -9 -3 -26 -20 -37 -38
-16 -25 -28 -33 -56 -35 -34 -3 -36 -1 -32 22 4 18 0 28 -11 32 -23 9 -48 -15
-44 -44 2 -21 -3 -27 -32 -37 -82 -28 -77 -29 -82 10 -4 34 -2 37 41 56 70 32
262 93 304 98 5 1 -1 -12 -13 -28z m-8580 -53 c0 -15 -23 -8 -36 10 -21 27
-16 34 11 15 13 -10 25 -21 25 -25z m595 -78 c58 -35 164 -141 215 -215 15
-22 42 -85 59 -140 18 -55 34 -105 37 -110 3 -7 -51 -20 -138 -34 -79 -12
-256 -42 -395 -67 l-252 -44 -123 50 c-118 47 -254 112 -271 129 -20 20 42
110 152 224 110 113 118 119 235 176 67 33 132 62 146 65 14 2 82 3 151 2 124
-2 127 -2 184 -36z m7578 -25 c-1 -11 -9 -24 -18 -30 -9 -5 -62 -40 -118 -77
-75 -49 -105 -64 -114 -56 -17 14 -43 -7 -43 -34 0 -17 -51 -70 -88 -92 -12
-7 -14 -5 -7 10 4 10 10 48 14 84 6 61 8 65 46 91 64 44 144 81 225 105 86 26
106 26 103 -1z m-3175 -27 c7 -7 12 -29 12 -50 l0 -38 -68 0 c-38 0 -144 -3
-235 -7 l-167 -6 0 42 c0 41 1 42 28 37 44 -9 230 -26 286 -26 43 0 58 5 86
30 40 34 42 34 58 18z m2922 -152 c0 -2 -7 -6 -15 -10 -8 -3 -15 -1 -15 4 0 6
7 10 15 10 8 0 15 -2 15 -4z m-197 -36 c-7 -28 -243 -246 -243 -224 0 17 53
74 115 125 36 29 75 68 86 86 23 37 50 45 42 13z m-78 -221 c-38 -46 -59 -91
-98 -215 -30 -96 -41 -118 -79 -155 -23 -25 -55 -52 -70 -62 -33 -21 -35 -31
-8 -54 11 -10 20 -27 20 -38 0 -12 6 -30 14 -41 20 -25 46 -10 61 36 l12 34 6
-32 c8 -38 80 -120 113 -128 23 -6 23 -7 -20 -63 -24 -31 -63 -89 -86 -129
-41 -69 -80 -112 -103 -112 -6 0 -22 -11 -36 -24 -15 -13 -44 -33 -65 -44 -39
-21 -39 -21 -77 -1 -73 37 -110 12 -64 -43 14 -16 25 -40 25 -53 0 -12 7 -29
16 -36 14 -11 30 -6 114 39 54 29 100 52 102 52 3 0 -4 -39 -15 -86 -16 -69
-18 -93 -9 -118 6 -17 10 -70 8 -117 -2 -83 -4 -88 -50 -162 -55 -88 -70 -94
-142 -52 -45 27 -114 107 -114 133 0 8 -16 35 -36 58 l-35 44 21 77 c12 43 32
98 46 122 13 24 24 53 24 64 0 11 -25 45 -59 78 -64 62 -68 72 -80 197 -7 64
-5 86 10 128 22 58 116 177 158 199 62 31 65 41 32 99 l-30 51 19 43 c20 44
209 247 210 225 0 -7 -34 -62 -75 -123 -70 -103 -75 -114 -75 -164 0 -38 -7
-67 -26 -102 -20 -37 -28 -69 -32 -129 -4 -67 -9 -86 -32 -115 -65 -84 -63
-116 8 -106 39 5 49 2 82 -24 43 -34 88 -53 107 -46 25 10 13 41 -36 91 l-49
50 12 95 c12 95 71 302 87 308 5 2 14 22 20 45 16 59 64 120 185 236 108 103
136 125 89 70z m-8753 -324 c4 -33 8 -69 10 -80 2 -15 -3 -21 -24 -23 -48 -6
-160 85 -173 141 l-7 28 93 -3 94 -3 7 -60z m7123 35 c360 -9 692 -22 940 -38
l100 -7 7 -50 c7 -47 6 -51 -19 -70 -148 -111 -183 -192 -163 -376 7 -57 13
-123 14 -147 3 -46 30 -83 78 -108 l28 -14 -25 -38 c-30 -46 -45 -115 -48
-219 l-2 -80 -120 -6 c-66 -4 -309 -10 -540 -14 l-420 -7 195 -18 c242 -22
581 -61 803 -94 93 -13 172 -24 177 -24 4 0 27 -16 51 -35 24 -19 50 -35 57
-35 7 0 12 -13 12 -31 0 -103 57 -175 187 -236 80 -37 93 -47 93 -67 0 -22 36
-73 98 -140 19 -21 101 -60 147 -70 20 -4 54 1 95 13 l64 20 45 -29 c24 -17
49 -30 55 -30 12 0 59 -44 81 -75 12 -18 17 -18 47 -7 19 6 61 12 94 12 33 0
64 4 70 9 5 5 25 12 44 15 41 7 59 -6 105 -73 27 -40 126 -131 182 -168 13 -9
35 -17 49 -19 15 -1 33 -12 41 -23 9 -13 25 -21 44 -21 25 0 50 -21 152 -122
261 -262 377 -479 377 -709 0 -48 -5 -112 -11 -141 -15 -74 -77 -201 -133
-275 -113 -149 -331 -317 -567 -438 l-111 -57 -216 61 c-923 258 -1749 402
-2652 463 -240 16 -953 16 -1190 -1 -381 -25 -753 -65 -1035 -111 l-120 -19
105 5 c512 24 898 29 1165 15 152 -8 123 -12 -285 -40 -470 -33 -973 -87
-1535 -167 -304 -42 -748 -114 -755 -121 -3 -3 15 -3 40 1 78 11 635 65 885
86 691 57 1149 74 1856 67 571 -5 704 -11 1109 -47 485 -44 910 -110 1334
-206 334 -77 734 -192 704 -203 -11 -4 49 -37 181 -99 361 -170 730 -381 941
-538 389 -290 490 -531 308 -730 -51 -56 -186 -147 -208 -140 -8 2 -107 37
-220 76 -656 229 -1297 354 -2000 390 -389 20 -763 11 -1435 -35 -520 -36
-816 -54 -1015 -63 l-175 -7 200 -8 c2089 -79 3235 -198 4095 -423 96 -26 185
-49 198 -51 19 -5 33 -23 17 -23 -3 0 -67 -16 -142 -35 -123 -32 -362 -83
-470 -100 -24 -4 -43 -8 -43 -10 0 -2 24 -50 53 -107 65 -126 109 -239 143
-360 21 -75 27 -122 31 -243 2 -82 0 -156 -5 -163 -7 -11 -43 -6 -188 27 -193
43 -431 90 -584 116 -153 25 -140 17 -140 81 0 61 -4 70 -65 164 -27 41 -51
94 -64 145 -12 44 -37 108 -56 142 -19 34 -39 81 -45 105 -6 24 -25 70 -42
104 -27 54 -40 68 -112 114 -44 30 -93 62 -109 72 -41 28 -179 95 -234 114
-31 12 -84 18 -153 19 -58 1 -179 7 -270 13 -225 15 -414 14 -543 -3 -60 -8
-121 -12 -136 -9 -70 14 -265 -38 -526 -140 -49 -19 -99 -35 -111 -36 -11 0
-24 -4 -30 -8 -5 -5 -40 -21 -79 -37 -38 -15 -85 -39 -104 -53 -18 -14 -80
-44 -136 -67 -111 -45 -204 -94 -249 -132 -16 -13 -65 -43 -109 -65 -102 -51
-263 -184 -318 -263 -23 -33 -55 -76 -71 -95 -16 -19 -41 -50 -56 -68 -76 -92
-56 -84 -352 -141 -384 -74 -775 -177 -1097 -290 -163 -57 -388 -150 -380
-157 2 -2 42 7 88 21 271 82 625 165 909 214 188 33 548 81 606 81 32 0 35 -2
28 -22 -5 -13 -8 -35 -9 -51 0 -32 4 -30 -150 -57 -153 -26 -365 -68 -345 -69
8 -1 71 6 140 13 69 8 166 18 215 21 50 4 99 9 109 12 16 4 14 -2 -12 -35 -67
-84 -77 -153 -41 -282 12 -41 20 -97 19 -124 -1 -47 0 -48 24 -42 13 3 36 2
51 -4 25 -10 25 -10 9 -42 -13 -24 -15 -52 -12 -123 l4 -92 53 -61 c34 -39 72
-70 102 -84 43 -21 67 -44 55 -55 -2 -3 -73 -25 -158 -49 -457 -134 -996 -334
-1488 -554 -152 -68 -491 -232 -487 -236 2 -2 138 41 303 96 547 183 897 288
1328 396 259 65 682 154 730 154 15 0 40 -14 63 -36 44 -42 102 -70 159 -80
30 -4 54 0 92 16 51 22 52 22 113 4 33 -10 72 -29 85 -41 26 -24 49 -29 58
-14 3 4 26 11 52 15 26 3 69 20 96 36 48 30 68 32 68 6 0 -36 173 -156 227
-156 15 0 36 -7 46 -15 15 -10 65 -14 226 -15 221 -1 224 0 319 60 21 14 24
13 33 -2 13 -24 36 -23 49 2 18 33 40 25 40 -14 0 -39 15 -53 119 -106 86 -45
160 -47 246 -7 81 38 165 105 182 144 10 25 19 33 39 33 49 0 109 23 161 62
29 21 57 38 64 38 6 0 24 11 41 25 16 14 33 25 38 25 15 0 27 -26 43 -91 70
-283 62 -554 -23 -776 -40 -104 -115 -232 -143 -242 -12 -4 -56 -11 -97 -15
-208 -18 -530 -76 -775 -138 -578 -146 -1076 -371 -1620 -733 -167 -111 -424
-293 -459 -326 -5 -5 58 9 140 31 135 35 285 80 1149 341 364 111 895 239 988
239 26 0 18 -6 -156 -106 l-107 -62 47 -6 c372 -52 733 -143 887 -224 l51 -27
-230 -7 c-438 -12 -792 -67 -1195 -183 -261 -75 -242 -65 -182 -104 51 -32
182 -163 182 -181 0 -5 48 14 108 41 389 182 783 296 1192 344 194 23 220 21
257 -18 93 -95 97 -256 12 -402 -30 -52 -92 -137 -110 -151 -8 -6 -79 -21
-159 -33 -562 -86 -999 -253 -1299 -496 -159 -129 -238 -215 -441 -481 -79
-104 -163 -213 -188 -242 -24 -29 -42 -55 -40 -58 6 -6 224 126 518 313 511
325 723 434 1066 549 l132 44 133 -48 c74 -27 199 -71 279 -97 274 -90 475
-167 610 -233 l135 -66 -50 -8 c-27 -4 -117 -17 -198 -28 -235 -33 -515 -110
-733 -202 l-73 -30 62 -41 c34 -22 88 -60 119 -85 l58 -45 79 36 c237 109 577
215 819 258 l72 12 31 -29 c44 -42 98 -158 110 -236 12 -77 -4 -195 -40 -288
l-21 -56 -132 -54 c-302 -123 -592 -287 -883 -498 -235 -171 -575 -425 -572
-429 11 -10 278 100 577 239 299 140 484 221 592 262 132 49 324 106 359 106
50 0 364 -164 429 -225 19 -18 61 -47 94 -64 149 -79 346 -282 426 -441 50
-99 97 -290 72 -290 -6 0 -39 8 -74 17 -143 38 -390 14 -683 -69 -108 -30
-426 -136 -435 -144 -2 -3 1 -14 8 -25 12 -18 11 -19 -7 -10 -11 6 -74 11
-139 11 -211 0 -336 39 -410 126 l-34 42 -162 30 c-88 17 -198 35 -242 40 -45
5 -97 17 -115 26 -19 10 -68 29 -109 43 -332 113 -432 282 -449 758 -7 191 -8
203 -35 258 -16 32 -24 62 -20 67 5 4 45 31 89 60 44 29 86 60 93 68 6 9 12
39 12 66 l0 51 -141 17 -141 18 -74 -52 -74 -52 -77 27 c-116 40 -229 62 -523
102 -545 73 -775 127 -1030 239 -134 59 -268 139 -243 146 11 3 53 43 94 90
40 47 105 118 144 158 l70 73 -70 72 c-100 103 -159 222 -188 381 l-12 67
-125 -89 c-69 -49 -179 -132 -245 -185 -66 -52 -124 -93 -128 -90 -13 8 -92
171 -132 273 -73 187 -141 509 -160 760 -7 100 -26 163 -59 205 l-24 30 26 17
25 17 -44 -5 -44 -5 29 23 c75 60 355 256 479 334 75 48 136 88 134 90 -2 2
-66 -15 -142 -37 -205 -59 -373 -90 -490 -92 -124 -2 -185 14 -235 62 -74 71
-76 161 -10 430 22 90 39 168 38 173 -4 10 -305 -140 -453 -226 -231 -134
-514 -333 -648 -456 l-67 -62 108 -53 c117 -59 122 -67 16 -31 -176 60 -283
140 -310 234 -37 126 34 322 196 542 106 145 115 162 115 250 0 57 -5 84 -22
115 -61 115 -287 249 -626 369 l-118 42 43 35 c208 167 525 364 813 505 l149
74 42 122 c30 88 39 125 31 131 -7 4 -50 19 -97 34 l-85 26 -85 -17 c-47 -9
-212 -49 -368 -87 -671 -166 -1134 -329 -1296 -458 -21 -17 -42 -31 -45 -31
-16 0 -125 101 -163 150 -52 69 -112 195 -133 282 -15 60 -19 66 -35 58 -10
-6 -21 -10 -24 -10 -16 0 3 365 30 615 19 175 12 237 -37 304 -55 77 -169 143
-314 182 -66 17 -111 22 -250 23 -93 0 -225 -3 -292 -7 l-122 -8 19 69 c43
154 146 381 291 638 l84 149 0 85 c0 102 -17 143 -88 213 -87 85 -203 128
-386 143 l-84 7 69 33 c46 22 75 43 87 63 17 29 19 29 49 17 33 -14 147 -11
183 4 65 29 101 40 129 40 17 0 42 7 55 17 21 14 30 14 74 3 39 -10 51 -10 57
0 5 8 20 10 49 5 32 -5 46 -3 66 13 13 11 50 30 82 42 32 13 70 32 84 42 16
10 68 24 125 33 152 23 196 32 238 50 43 18 136 94 136 111 0 13 52 64 66 64
11 0 79 79 109 126 38 60 59 89 87 119 26 29 68 130 68 165 0 10 17 39 39 65
76 92 121 219 121 343 0 39 5 74 11 77 6 4 9 20 7 36 -2 23 4 35 27 53 28 23
29 26 17 58 -16 44 -15 68 1 87 19 23 77 238 77 287 0 22 -13 85 -30 140 -26
90 -29 112 -28 239 0 85 -4 154 -12 175 -6 19 -15 94 -20 165 -12 183 -18 203
-86 287 -97 122 -215 250 -278 305 -135 116 -129 112 -227 134 -52 11 -118 33
-149 49 -79 42 -227 98 -445 168 -243 78 -287 89 -419 108 -60 8 -123 22 -139
31 -83 42 -366 55 -625 28 -79 -8 -167 -14 -195 -13 -75 3 -248 -19 -299 -38
-24 -9 -92 -22 -153 -30 -202 -26 -256 -35 -312 -55 -31 -10 -58 -19 -60 -19
-3 0 22 50 54 111 56 107 61 112 143 173 371 270 928 518 1666 741 195 59 622
174 704 190 19 4 46 17 60 30 18 16 71 35 185 63 988 250 2033 407 3180 477
357 21 720 36 752 29 15 -3 156 2 313 10 737 40 1464 53 2135 36z m4269 -69
c20 -33 70 -91 111 -129 51 -47 75 -76 75 -91 0 -13 -15 -64 -34 -115 -19 -50
-37 -107 -41 -126 -4 -19 -14 -43 -23 -53 -15 -17 -19 -15 -71 36 -83 80 -220
187 -241 187 -26 0 -33 -29 -15 -57 9 -13 91 -106 183 -206 92 -101 174 -197
181 -215 20 -48 6 -93 -54 -182 -30 -44 -77 -118 -105 -165 -29 -47 -55 -85
-59 -85 -11 0 -210 49 -247 61 l-31 9 38 40 c21 22 58 80 83 130 43 87 45 93
32 123 -35 82 -51 108 -72 113 -47 12 -53 -15 -23 -112 17 -57 1 -93 -76 -169
-54 -52 -74 -65 -161 -97 -54 -20 -106 -40 -115 -43 -11 -4 -19 4 -27 32 -12
38 -50 91 -168 236 -60 73 -61 76 -72 161 -12 94 -40 158 -98 224 -27 31 -35
35 -51 26 -29 -18 -26 -35 18 -108 38 -63 42 -76 50 -167 4 -54 15 -112 24
-129 9 -17 61 -78 115 -135 91 -96 100 -109 100 -144 0 -23 -6 -44 -16 -52 -9
-7 -31 -43 -49 -80 -19 -37 -51 -90 -72 -117 -44 -60 -57 -58 -104 15 -32 52
-158 153 -189 153 -11 0 -23 -6 -26 -14 -6 -17 35 -92 70 -128 13 -12 43 -53
68 -89 43 -63 45 -69 51 -159 4 -68 2 -100 -8 -119 -20 -39 -88 -90 -153 -113
-31 -11 -73 -26 -92 -34 -51 -19 -112 -17 -197 9 -72 21 -77 24 -120 85 -28
38 -47 77 -50 100 -5 36 -2 41 36 72 l42 32 67 -30 c37 -16 77 -33 89 -37 22
-6 22 -8 8 -35 -8 -16 -14 -33 -14 -37 1 -4 -1 -16 -6 -26 -9 -21 10 -47 36
-47 39 0 116 120 105 165 -4 15 -39 40 -113 81 -60 32 -117 61 -128 64 -11 3
-57 28 -103 55 -46 28 -100 60 -122 73 -21 12 -63 25 -92 29 -29 3 -61 12 -70
21 -11 9 -27 12 -42 8 -37 -9 -346 117 -346 142 0 21 64 104 126 163 47 45 94
78 149 105 75 36 87 39 186 42 121 4 142 -2 216 -71 74 -68 105 -116 133 -200
30 -94 51 -114 81 -78 10 13 19 37 19 53 0 16 6 36 14 43 16 17 13 34 -40 228
-38 137 -40 207 -7 226 9 5 17 18 18 29 2 30 98 162 148 203 73 60 103 79 207
123 55 25 118 60 140 80 45 41 60 45 60 17 0 -11 11 -33 25 -49 14 -17 25 -36
25 -43 1 -24 63 -85 136 -132 122 -80 154 -114 183 -197 26 -73 51 -104 70
-85 14 14 16 167 3 191 -16 29 -143 151 -191 183 -23 16 -41 32 -39 37 2 4 46
22 98 40 129 43 283 114 387 177 89 53 98 62 108 110 3 15 9 27 14 27 4 0 25
-27 45 -59z m1376 44 c0 -8 -7 -15 -15 -15 -8 0 -15 7 -15 15 0 8 7 15 15 15
8 0 15 -7 15 -15z m90 -377 c0 -69 -16 -156 -26 -145 -8 8 9 217 17 217 5 0 9
-33 9 -72z m-2760 35 c0 -10 -32 -43 -42 -43 -4 0 -8 11 -8 25 0 20 5 25 25
25 14 0 25 -3 25 -7z m-140 -328 c0 -8 -4 -15 -10 -15 -5 0 -7 7 -4 15 4 8 8
15 10 15 2 0 4 -7 4 -15z m-690 -195 c0 -5 -2 -10 -4 -10 -3 0 -8 5 -11 10 -3
6 -1 10 4 10 6 0 11 -4 11 -10z m3535 -100 c3 -10 3 -41 0 -67 -4 -26 -8 -59
-9 -73 -2 -14 -8 -42 -15 -63 -12 -36 -14 -37 -31 -22 -10 9 -31 41 -46 70
-29 55 -63 80 -94 70 -33 -10 -36 -65 -3 -65 8 0 30 -34 51 -77 34 -72 37 -85
37 -164 -1 -77 -4 -91 -28 -128 -15 -22 -38 -48 -52 -57 -15 -10 -30 -35 -39
-68 -11 -37 -31 -69 -68 -110 -49 -53 -55 -57 -79 -47 -20 7 -36 29 -58 78
-49 107 -53 111 -80 94 -18 -12 -34 -100 -20 -117 6 -7 20 -32 32 -56 18 -36
30 -46 69 -59 l47 -15 -18 -30 c-23 -37 -53 -57 -111 -73 -25 -6 -67 -17 -95
-25 -116 -31 -105 -33 -105 27 0 62 -20 98 -45 82 -19 -11 -45 -77 -45 -114 0
-24 -76 -106 -150 -160 -43 -32 -129 -41 -165 -17 -31 21 -36 76 -6 76 10 0
35 14 56 30 21 17 41 30 45 30 8 0 80 153 80 170 0 7 10 8 28 3 30 -9 86 -8
137 1 18 4 64 30 103 59 39 28 78 57 88 62 9 6 28 49 43 95 l28 85 107 7 c123
7 142 16 186 86 33 53 36 65 16 81 -11 9 -23 4 -57 -25 -56 -46 -66 -50 -185
-64 -54 -7 -107 -16 -116 -21 -9 -5 -27 -41 -40 -80 -19 -59 -31 -79 -72 -116
-27 -24 -68 -55 -90 -68 -39 -22 -45 -23 -105 -12 -85 16 -92 28 -62 112 16
45 20 70 13 77 -17 17 -45 4 -68 -32 -12 -19 -32 -44 -43 -56 -27 -27 -27 -60
0 -103 l20 -33 -26 -66 c-37 -92 -55 -114 -122 -147 -32 -16 -71 -37 -87 -48
l-28 -20 -82 26 c-91 30 -154 30 -266 4 -36 -9 -82 -19 -102 -22 -21 -3 -51
-17 -68 -31 -16 -14 -34 -22 -40 -19 -20 13 -70 -16 -76 -44 -4 -14 -15 -35
-25 -46 -26 -29 -32 -67 -16 -90 20 -27 44 -14 134 69 80 75 97 82 216 91 45
4 96 9 112 12 17 3 41 5 55 5 30 1 181 -39 193 -51 4 -4 5 -20 2 -34 -5 -20
-22 -31 -78 -55 -147 -60 -171 -62 -179 -10 -2 12 -11 26 -20 32 -22 13 -54
-15 -63 -55 -4 -17 -32 -57 -62 -89 -60 -65 -140 -110 -228 -128 -49 -10 -51
-10 -118 33 -74 47 -120 97 -137 151 l-12 36 78 81 c44 45 113 121 156 168 73
82 77 85 113 81 21 -3 61 0 89 7 28 6 86 17 129 25 94 18 166 50 244 107 157
117 349 299 358 340 5 20 11 26 24 22 11 -3 24 3 32 15 11 15 31 21 103 27 82
6 98 12 204 66 63 32 120 59 127 59 50 0 155 188 155 277 0 39 2 44 17 38 10
-3 70 -9 133 -12 108 -5 116 -4 134 16 24 26 33 27 41 1z m-4315 -479 c0 -39
16 -81 42 -108 30 -32 19 -29 -54 14 -71 42 -118 84 -118 107 0 13 12 16 65
16 l65 0 0 -29z m300 -266 c63 0 141 3 172 8 55 7 59 6 90 -24 23 -22 27 -29
13 -24 -48 18 -67 17 -88 -3 -44 -40 -184 -56 -251 -28 -35 14 -106 79 -106
97 0 5 12 1 27 -8 22 -15 49 -18 143 -18z m-9565 -54 l30 -6 -40 -28 c-22 -15
-47 -27 -56 -27 -22 0 -41 -25 -37 -47 5 -29 45 -41 176 -54 113 -11 125 -11
140 5 16 16 16 18 -7 37 -13 10 -31 19 -40 19 -9 0 -33 5 -54 11 l-38 10 36
29 c50 40 152 49 245 22 59 -18 65 -21 62 -44 -4 -45 21 -54 84 -29 78 29 127
27 239 -14 123 -44 141 -54 98 -55 -17 0 -35 5 -38 11 -4 6 -14 7 -24 4 -16
-7 -128 -9 -306 -5 -131 2 -220 -12 -358 -56 -110 -36 -113 -37 -209 -28 -117
11 -449 -7 -523 -29 -27 -8 -78 -28 -112 -46 -34 -17 -69 -31 -78 -31 -8 0
-70 -28 -138 -61 -67 -34 -149 -68 -182 -76 -33 -8 -88 -29 -123 -48 -34 -19
-72 -35 -83 -35 -12 0 -40 -22 -67 -51 -26 -27 -78 -83 -116 -122 -59 -62
-178 -206 -299 -364 -18 -22 -50 -50 -73 -61 l-40 -20 -43 44 -43 45 7 77 c5
55 13 87 30 113 13 20 46 81 74 136 56 112 99 158 231 243 41 26 89 59 105 72
17 14 79 50 138 82 89 47 124 60 195 72 126 20 126 20 107 -16 -18 -35 -19
-62 -3 -78 21 -21 35 -13 63 31 29 46 108 110 222 180 70 43 76 45 200 57 123
13 129 14 161 46 17 17 32 39 32 47 0 18 30 27 90 27 44 0 48 -3 113 -75 69
-75 98 -90 125 -63 19 19 15 30 -38 87 -27 30 -47 58 -44 62 6 10 164 10 209
0z m-565 -30 c-17 -10 -158 -26 -149 -17 9 9 81 24 124 25 27 0 35 -2 25 -8z
m11010 -81 c11 -6 23 -9 29 -8 5 2 25 -18 45 -43 28 -38 50 -53 110 -78 41
-17 91 -31 110 -31 l36 0 -16 -37 c-9 -21 -22 -59 -27 -85 l-11 -48 -49 0
c-41 0 -65 9 -141 52 -186 106 -226 140 -226 198 0 63 22 94 85 115 26 9 30 8
33 -7 2 -10 12 -23 22 -28z m-11334 5 c-13 -14 -28 -25 -34 -25 -6 0 -27 -16
-48 -35 -27 -26 -46 -35 -71 -35 -31 0 -33 2 -22 21 9 17 8 25 -5 37 -14 14
-17 14 -36 -3 -11 -10 -19 -28 -18 -39 3 -17 -6 -21 -59 -31 l-62 -11 2 35 c2
34 5 37 53 52 65 20 224 50 306 58 14 1 13 -3 -6 -24z m-428 -100 c2 -17 -20
-31 -126 -81 -98 -46 -132 -58 -144 -50 -19 12 -48 -7 -48 -33 0 -9 -15 -25
-33 -37 -17 -11 -44 -28 -59 -38 l-27 -17 20 37 c10 21 19 57 19 80 0 49 7 55
122 102 69 29 220 63 258 58 8 0 16 -10 18 -21z m2537 -109 c28 -1 75 -10 106
-20 l57 -18 -53 -76 c-56 -82 -95 -112 -142 -112 -35 0 -53 -16 -53 -46 0 -46
-20 -32 -74 49 -30 45 -76 103 -101 127 -26 25 -51 55 -56 68 -5 13 -22 30
-38 40 l-30 17 37 10 c30 9 63 6 167 -13 72 -13 153 -25 180 -26z m-687 -1
c128 -19 148 -26 247 -80 65 -35 96 -60 140 -113 32 -37 64 -83 72 -102 8 -19
32 -53 53 -75 20 -22 54 -65 74 -95 29 -44 36 -64 36 -103 0 -27 4 -56 9 -65
4 -9 11 -50 14 -90 5 -63 4 -72 -8 -62 -23 19 -42 5 -49 -34 -5 -28 -1 -50 20
-97 l28 -61 -37 -127 c-20 -70 -37 -133 -37 -139 0 -20 38 -34 60 -22 25 13
50 61 50 94 0 14 9 42 19 63 49 94 68 325 37 439 -9 34 -16 91 -16 127 0 36
-5 78 -11 94 -6 15 -13 47 -14 70 -3 42 -2 43 45 69 35 19 70 54 126 125 93
117 114 127 178 82 22 -16 50 -43 62 -61 26 -37 40 -132 25 -161 -19 -35 -12
-54 35 -102 l46 -47 -11 -70 c-18 -114 -15 -155 13 -181 39 -37 61 -25 62 34
2 104 10 116 52 85 16 -12 35 -19 41 -16 25 16 7 57 -73 159 l-83 108 8 46 c5
26 11 48 13 50 8 9 176 -204 176 -223 0 -6 7 -18 17 -25 26 -22 73 -131 73
-170 0 -20 -7 -50 -15 -65 -19 -37 -19 -56 1 -102 8 -20 19 -56 23 -79 l8 -42
-58 32 c-51 28 -57 35 -52 57 3 17 -1 31 -11 39 -19 16 -46 8 -46 -14 0 -23
-15 -18 -47 15 -32 35 -36 36 -57 14 -22 -22 -20 -38 11 -75 28 -32 170 -130
221 -151 22 -9 24 -12 9 -15 -25 -6 -18 -45 10 -58 14 -6 21 -16 18 -25 -2 -8
-14 -67 -25 -130 -22 -118 -51 -224 -75 -271 -10 -19 -12 -47 -8 -98 6 -75 22
-103 47 -82 11 9 15 8 20 -5 18 -46 -8 -118 -49 -134 -14 -5 -26 -20 -29 -37
-4 -18 -19 -35 -44 -49 -64 -37 -83 -37 -153 -1 l-64 32 -5 60 c-3 33 0 76 6
95 12 36 38 225 50 362 10 113 5 123 -74 162 -76 37 -112 58 -112 67 0 3 14
24 31 45 63 78 85 173 69 298 -11 87 -50 161 -85 161 -18 0 -20 -6 -17 -55 9
-210 8 -222 -21 -285 -15 -33 -54 -96 -85 -140 -80 -111 -85 -119 -122 -215
-36 -92 -45 -194 -22 -237 14 -25 74 -47 112 -41 41 5 39 44 -4 69 -32 19 -36
25 -36 63 0 90 57 210 106 222 30 8 129 -20 162 -45 l23 -17 -37 -194 c-23
-128 -37 -236 -40 -314 -5 -127 -30 -229 -78 -304 -34 -54 -40 -57 -167 -98
-115 -37 -247 -54 -303 -40 -36 9 -56 54 -56 125 0 93 -17 157 -52 191 -59 59
-96 29 -57 -48 20 -40 23 -62 24 -154 0 -58 3 -110 7 -113 22 -23 -92 -169
-157 -202 -27 -14 -115 -61 -194 -106 -84 -47 -167 -86 -200 -93 -56 -14 -281
-20 -281 -8 0 4 14 35 31 70 30 60 31 68 27 161 -3 71 -9 109 -23 138 -42 84
-81 43 -64 -67 5 -35 12 -71 15 -80 4 -12 0 -18 -10 -18 -19 0 -30 -40 -23
-78 5 -23 -4 -40 -44 -93 -27 -35 -66 -85 -85 -111 -34 -46 -130 -127 -196
-167 -21 -13 -41 -18 -60 -14 -20 4 -33 1 -41 -11 -11 -14 -17 -14 -79 1 -64
15 -70 15 -110 -2 -121 -50 -107 -49 -231 -3 -62 22 -114 43 -116 44 -2 2 3
23 13 46 16 44 60 97 99 123 37 23 220 85 254 85 27 0 34 5 39 28 4 15 19 41
34 57 22 24 31 49 45 128 l17 98 37 15 c25 10 65 46 120 110 98 112 133 137
222 161 l67 17 78 -31 c44 -16 125 -44 181 -62 144 -44 152 -52 164 -176 11
-108 25 -138 57 -119 12 8 21 36 30 90 37 233 31 215 73 252 22 20 39 41 39
48 0 6 6 14 14 17 12 5 75 91 129 177 11 17 20 58 24 99 5 64 3 74 -26 130
l-32 61 37 37 c20 20 51 68 69 107 18 39 54 115 79 170 25 54 46 107 46 118 0
11 -24 45 -53 76 -122 129 -181 243 -207 395 -24 140 -60 240 -105 284 -17 18
-43 53 -56 77 -29 56 -48 65 -72 34 -27 -32 -17 -64 53 -172 66 -101 87 -153
96 -230 5 -47 3 -56 -34 -112 -22 -33 -52 -70 -68 -81 -91 -61 -311 -130 -479
-149 -33 -4 -67 -10 -76 -15 -26 -13 -38 4 -45 62 l-6 56 57 39 c110 75 136
133 134 304 -1 87 -10 114 -37 118 -29 4 -37 -19 -57 -165 -15 -114 -17 -119
-51 -149 -52 -48 -213 -161 -261 -184 -81 -40 -296 -35 -383 10 -20 10 -97 82
-171 159 -75 78 -143 141 -153 141 -20 0 -30 -22 -23 -53 7 -24 121 -171 206
-264 46 -50 54 -64 58 -109 10 -91 -1 -116 -87 -209 -85 -92 -89 -102 -99
-228 l-6 -79 -40 32 c-76 61 -181 103 -295 119 -58 8 -71 6 -122 -15 -32 -13
-60 -24 -63 -24 -3 0 -5 13 -5 28 0 16 -9 37 -20 47 -19 17 -21 17 -39 1 -18
-16 -19 -16 -25 7 -9 39 -156 256 -177 262 -29 10 -52 -14 -45 -45 2 -15 28
-64 56 -110 56 -94 80 -161 80 -230 0 -55 -12 -69 -123 -141 -100 -65 -112
-83 -97 -141 20 -73 100 -141 261 -221 98 -48 148 -67 175 -67 22 0 56 -9 77
-20 20 -11 44 -20 52 -20 8 0 15 -3 15 -7 0 -5 31 -33 70 -63 38 -30 69 -58
70 -61 0 -15 -31 -17 -56 -4 -45 23 -64 5 -64 -60 0 -29 -4 -57 -10 -60 -5 -3
-44 -12 -86 -21 -83 -15 -104 -26 -104 -54 0 -11 -13 -21 -39 -28 -54 -17 -58
-15 -53 16 3 25 -5 34 -74 87 -42 33 -101 87 -131 121 l-53 61 45 24 c51 27
62 46 41 67 -23 23 -68 17 -137 -20 -61 -31 -69 -33 -170 -33 -124 0 -129 3
-178 94 -65 122 -63 231 6 311 41 48 69 51 180 20 81 -22 103 -19 103 16 0 25
-26 45 -139 106 -58 32 -71 62 -71 166 0 57 5 73 52 159 61 113 124 193 199
249 47 36 70 44 180 69 118 26 138 27 298 23 211 -5 204 -1 211 -130 4 -74 8
-93 23 -102 14 -9 21 -7 32 8 15 20 29 104 30 179 0 95 -54 116 -365 136 -69
4 -144 6 -168 3 l-44 -4 94 115 c51 63 114 142 140 175 26 33 58 67 71 74 13
7 58 36 100 64 112 76 203 98 367 91 175 -9 200 -14 211 -46 5 -14 14 -34 19
-43 6 -10 10 -34 10 -53 0 -19 4 -35 9 -35 4 0 8 -18 8 -41 0 -24 7 -47 17
-57 14 -15 17 -15 32 -1 21 21 42 210 27 248 -14 37 0 69 34 77 15 4 33 10 38
14 21 14 183 32 270 28 l90 -3 -3 -80 c-4 -97 2 -125 27 -125 27 0 38 18 45
75 12 89 17 104 31 99 20 -8 55 14 55 35 0 27 -25 44 -94 64 -34 10 -83 25
-111 34 -27 8 -61 15 -75 15 -68 -2 -85 -4 -94 -10 -6 -4 -22 -8 -36 -10 -44
-6 -234 -63 -249 -75 -9 -8 -60 -12 -141 -12 l-127 0 91 44 c50 24 100 51 111
60 11 10 45 23 75 30 30 8 67 20 83 28 74 38 500 58 539 26 11 -10 29 -10 74
-2 82 15 154 39 155 53 2 20 30 -156 38 -244 8 -75 47 -240 65 -269 4 -5 -9
-51 -29 -102 -40 -103 -41 -112 -20 -129 23 -19 45 6 95 111 l43 91 -27 80
c-47 140 -59 470 -18 481 35 10 116 6 210 -8z m-2318 -33 c0 -20 -37 -54 -117
-109 -127 -86 -168 -110 -157 -91 13 22 59 59 139 110 39 25 80 57 92 72 22
25 43 34 43 18z m190 -1 c0 -12 -20 -25 -27 -18 -7 7 6 27 18 27 5 0 9 -4 9
-9z m-339 -263 c-22 -29 -64 -106 -95 -170 -31 -67 -61 -118 -69 -118 -7 0
-24 -12 -38 -26 -13 -14 -39 -32 -56 -39 -37 -16 -40 -29 -18 -71 8 -16 15
-36 15 -45 0 -9 7 -22 15 -29 18 -15 41 1 58 40 10 25 10 24 17 -13 8 -43 54
-114 85 -131 11 -6 22 -12 24 -13 2 -2 -25 -34 -60 -71 -35 -38 -86 -94 -112
-125 -33 -39 -59 -59 -83 -66 -20 -6 -44 -16 -53 -24 -9 -7 -35 -22 -59 -32
-38 -16 -47 -17 -65 -5 -68 43 -74 45 -91 31 -15 -13 -15 -17 5 -50 12 -20 22
-49 23 -66 1 -25 6 -31 27 -33 15 -2 44 4 65 13 54 23 144 55 144 50 0 -2 -14
-40 -31 -85 -28 -72 -30 -86 -21 -122 7 -27 7 -48 1 -59 -5 -10 -9 -35 -9 -56
0 -44 -18 -79 -80 -157 -35 -43 -51 -56 -72 -56 -51 0 -155 115 -163 181 -2
15 -16 46 -30 67 l-26 40 27 69 c27 68 65 136 91 161 21 21 16 38 -27 87 -63
73 -70 93 -70 200 0 81 4 103 24 143 30 59 144 167 202 193 48 20 57 47 29 85
-41 54 -6 114 128 217 140 108 144 100 19 -40 -82 -91 -89 -102 -95 -151 -4
-35 -16 -66 -36 -95 -28 -39 -61 -136 -61 -180 0 -10 -21 -40 -46 -67 -60 -64
-59 -95 3 -95 36 0 48 -6 86 -43 28 -28 54 -44 72 -45 44 -3 43 26 -4 88 l-41
55 22 87 c22 88 108 288 133 307 7 6 16 24 19 40 9 38 98 123 217 209 52 36
95 67 97 67 1 0 -15 -24 -37 -52z m3859 -556 c0 -14 -11 -21 -26 -15 -8 3 -11
9 -8 14 7 11 34 12 34 1z m-1185 -217 c24 -35 51 -65 60 -69 8 -3 20 -17 25
-32 9 -23 2 -42 -50 -146 -33 -66 -60 -126 -60 -133 0 -8 -10 -21 -22 -29 -20
-15 -23 -13 -60 36 -62 84 -209 229 -227 226 -9 -2 -17 -13 -19 -26 -3 -22 19
-58 204 -322 105 -151 122 -191 101 -242 -8 -18 -59 -85 -113 -148 -54 -64
-110 -131 -124 -149 l-26 -34 -94 36 c-52 20 -113 43 -135 53 l-40 17 65 67
c36 36 80 91 98 122 l34 56 -18 59 c-22 72 -56 113 -82 97 -18 -12 -18 -19 -6
-116 l7 -56 -49 -52 c-66 -71 -111 -94 -237 -124 -60 -14 -112 -26 -117 -26
-4 0 -10 14 -14 31 -8 42 -45 113 -121 235 l-65 103 0 94 c0 91 -1 97 -42 178
-37 72 -47 84 -68 84 -36 0 -37 -31 -1 -110 29 -63 31 -73 28 -179 -2 -105 0
-114 26 -161 15 -27 49 -75 75 -107 61 -73 92 -131 85 -160 -3 -13 -18 -36
-33 -53 -15 -16 -42 -52 -60 -80 -18 -27 -53 -69 -78 -93 -43 -41 -46 -42 -65
-25 -10 10 -30 38 -42 63 -13 25 -52 74 -88 109 -52 50 -69 62 -86 56 -11 -3
-21 -13 -21 -21 0 -17 37 -95 72 -149 14 -22 37 -64 52 -94 26 -50 27 -58 20
-140 -3 -47 -10 -96 -15 -108 -13 -35 -106 -90 -184 -109 -116 -29 -189 -24
-278 16 -72 34 -76 38 -112 102 -49 91 -47 131 11 171 l41 29 65 -41 c36 -23
70 -41 76 -41 22 0 21 -19 -3 -71 -22 -49 -23 -55 -8 -71 25 -28 43 -22 89 27
45 49 69 96 61 119 -6 16 -205 168 -224 170 -6 1 -51 33 -99 71 -132 106 -142
113 -198 126 -28 6 -59 20 -68 29 -10 11 -25 16 -36 13 -27 -7 -296 143 -316
175 -11 18 36 73 118 137 141 109 286 147 442 115 65 -14 124 -63 182 -152 41
-63 55 -103 67 -190 11 -83 60 -93 84 -18 8 25 21 50 29 56 14 10 13 30 -6
175 -12 90 -22 175 -22 188 0 40 22 89 42 94 10 3 18 13 18 24 0 29 129 156
205 201 43 25 112 53 180 72 68 19 130 45 162 65 53 35 63 33 63 -15 0 -9 7
-23 15 -30 8 -7 15 -21 15 -32 0 -36 50 -105 110 -152 32 -25 79 -70 104 -99
38 -45 48 -66 61 -127 14 -68 28 -100 44 -100 22 1 33 26 41 101 l10 84 -45
66 c-25 36 -74 95 -110 130 l-65 64 109 21 c212 42 502 149 518 191 4 10 13
29 22 42 15 24 15 24 43 -39 16 -35 48 -91 73 -125z m-1397 -5 c12 0 11 -5 -8
-25 -27 -28 -40 -24 -40 12 0 19 4 24 16 19 9 -3 23 -6 32 -6z m2702 -15 c0
-8 -6 -15 -14 -15 -17 0 -28 14 -19 24 12 12 33 6 33 -9z m-4735 -105 c3 -5 1
-10 -4 -10 -6 0 -11 5 -11 10 0 6 2 10 4 10 3 0 8 -4 11 -10z m1865 -189 c0
-6 -4 -13 -10 -16 -5 -3 -10 1 -10 9 0 9 5 16 10 16 6 0 10 -4 10 -9z m2900
-131 c-10 -57 -38 -132 -40 -105 0 6 10 62 22 125 17 85 24 106 26 80 2 -19
-1 -64 -8 -100z m-3615 21 c-6 -5 -25 10 -25 20 0 5 6 4 14 -3 8 -7 12 -15 11
-17z m-880 -440 c28 -6 30 -9 31 -53 1 -28 10 -62 23 -83 11 -19 19 -35 16
-35 -2 0 -32 23 -66 50 -62 50 -99 93 -99 118 0 13 42 14 95 3z m4192 -114
c99 -21 103 -21 133 -4 41 24 54 14 46 -36 -9 -53 -44 -160 -60 -182 -11 -16
-15 -13 -39 28 -15 25 -27 52 -27 60 0 8 -10 26 -21 41 -24 31 -65 32 -83 3
-9 -15 -7 -22 11 -36 12 -10 32 -47 44 -82 17 -52 20 -79 16 -145 -2 -45 -12
-94 -21 -111 -14 -29 -91 -103 -106 -103 -4 0 -15 -20 -24 -45 -12 -30 -37
-62 -79 -99 -58 -52 -62 -54 -87 -41 -21 11 -32 30 -49 87 -27 91 -34 103 -56
103 -19 0 -27 -11 -44 -66 -9 -29 -9 -43 2 -65 8 -16 21 -42 28 -59 8 -18 31
-39 56 -51 l41 -21 -24 -31 c-29 -36 -59 -47 -179 -62 -49 -6 -101 -13 -114
-15 -23 -3 -23 -1 -17 50 5 43 2 57 -12 76 -11 13 -24 19 -31 15 -12 -8 -61
-107 -61 -124 0 -19 -78 -80 -144 -112 -58 -29 -73 -32 -122 -27 -68 7 -86 21
-82 61 2 25 9 31 33 37 69 14 139 80 189 178 14 26 20 30 35 22 31 -17 115
-23 158 -12 56 15 198 97 215 124 8 12 25 48 39 79 l24 57 106 -6 c58 -3 118
-3 132 1 34 8 110 107 101 130 -9 24 -31 20 -81 -16 -45 -33 -46 -33 -167 -33
-66 0 -127 -4 -134 -8 -7 -5 -28 -39 -47 -76 -27 -55 -44 -75 -87 -104 -100
-66 -121 -73 -181 -58 -63 16 -97 36 -97 58 0 8 14 40 31 70 17 29 28 60 25
68 -10 26 -44 16 -78 -24 -18 -21 -43 -43 -55 -50 -27 -14 -29 -36 -7 -91 16
-39 16 -41 -11 -92 -47 -90 -69 -111 -137 -136 -35 -13 -76 -30 -91 -38 -40
-20 -48 -18 -126 21 -38 20 -84 35 -102 35 -19 0 -47 1 -64 2 -77 3 -232 -15
-261 -32 -18 -10 -42 -16 -58 -13 -29 6 -76 -20 -76 -41 0 -8 -13 -28 -30 -44
-32 -33 -40 -79 -15 -88 26 -10 58 4 145 67 l84 60 157 -5 c108 -3 167 -9 186
-19 15 -8 52 -22 81 -31 103 -34 84 -80 -48 -115 -109 -30 -139 -26 -154 19
-18 56 -48 53 -87 -10 -61 -100 -179 -167 -309 -176 l-65 -5 -60 51 c-64 55
-115 135 -115 180 0 22 12 36 53 68 28 22 97 79 152 127 135 118 135 117 182
107 21 -5 63 -5 93 -1 30 4 84 8 120 8 123 2 189 27 390 154 143 89 253 175
267 208 9 19 18 27 28 23 9 -4 24 1 35 11 16 15 32 16 102 11 76 -6 90 -4 168
24 47 17 112 39 145 49 33 9 70 23 83 30 37 20 129 172 138 226 6 42 9 46 28
40 11 -3 67 -16 123 -28z m-3955 -214 c35 -7 113 -16 175 -20 107 -6 114 -7
138 -35 26 -29 14 -38 -19 -13 -25 19 -28 19 -55 -4 -14 -13 -45 -22 -86 -26
-87 -10 -158 12 -206 62 -54 57 -83 119 -34 73 15 -14 50 -29 87 -37z m451
-182 c31 -24 74 -50 94 -57 37 -14 35 -14 -48 -11 -94 4 -124 16 -148 61 -13
23 -12 28 4 46 20 22 18 22 98 -39z m448 -58 c-12 -22 4 -53 27 -53 11 0 29
-20 48 -52 25 -44 42 -60 104 -95 41 -24 84 -43 96 -43 34 0 34 -10 3 -68 -16
-30 -29 -66 -29 -79 0 -21 -4 -24 -22 -20 -13 3 -39 9 -59 12 -24 4 -70 34
-140 89 -150 120 -173 146 -171 196 2 55 35 98 81 106 20 4 43 10 51 15 21 12
22 11 11 -8z m24 -23 c3 -5 1 -10 -4 -10 -6 0 -11 5 -11 10 0 6 2 10 4 10 3 0
8 -4 11 -10z m718 -559 c-3 -13 2 -23 16 -30 17 -9 24 -8 42 10 23 23 55 18
45 -7 -3 -9 -6 -20 -6 -25 0 -5 -41 -36 -92 -69 l-91 -61 -25 23 c-26 24 -61
92 -62 118 0 10 24 22 73 36 95 28 106 29 100 5z m8346 -581 c43 -1 52 -3 38
-11 -9 -6 -26 -7 -37 -4 -11 4 -29 0 -42 -9 -12 -9 -34 -16 -49 -16 -15 0 -32
-7 -39 -15 -7 -8 -23 -15 -36 -15 -77 0 -230 -61 -355 -141 -67 -43 -103 -59
-142 -64 -72 -10 -355 -107 -408 -140 -24 -15 -62 -43 -84 -62 -158 -134 -194
-163 -254 -203 -149 -100 -171 -126 -265 -314 -46 -94 -99 -208 -116 -252 -18
-46 -44 -94 -60 -109 l-28 -27 -41 23 c-67 38 -76 96 -38 268 29 128 38 144
173 301 114 133 164 177 250 216 41 19 77 34 79 34 2 0 1 -15 -2 -33 -3 -23 0
-37 11 -46 21 -18 42 -1 51 40 7 30 99 152 152 200 15 14 70 43 120 64 101 41
112 50 122 96 5 26 14 34 53 49 l46 17 61 -39 c69 -43 114 -48 119 -13 2 15
-9 26 -44 45 -26 14 -47 30 -46 35 1 11 163 57 172 49 3 -3 -14 -23 -37 -43
-24 -20 -43 -42 -43 -48 0 -27 37 -33 120 -18 132 23 160 36 138 62 -8 11 -25
12 -66 7 -45 -5 -53 -4 -47 7 32 57 102 89 190 89 54 0 63 -3 68 -20 7 -27 33
-25 75 7 43 32 84 43 141 37 24 -2 69 -4 100 -4z m469 -29 c18 -1 20 -4 12
-18 -5 -10 -20 -45 -32 -78 -19 -50 -30 -63 -63 -81 -33 -17 -40 -25 -37 -47
1 -15 -1 -27 -6 -27 -4 0 -35 21 -68 48 -32 26 -79 58 -104 71 -25 13 -54 32
-65 41 -11 10 -26 19 -34 22 -33 10 62 36 174 47 66 7 124 16 128 21 5 4 23 6
40 4 18 -1 42 -3 55 -3z m212 -20 c41 -20 74 -78 74 -131 1 -29 7 -38 41 -57
22 -12 44 -24 48 -25 4 -2 13 -37 19 -78 12 -79 41 -125 76 -118 18 4 19 17 6
92 -6 37 -5 38 17 31 38 -12 43 -11 47 7 3 16 -73 80 -149 125 -20 12 -30 28
-34 55 -4 22 -5 41 -3 43 7 8 142 -87 212 -149 76 -67 98 -106 90 -158 -5 -27
-1 -40 19 -64 29 -35 50 -74 44 -80 -2 -3 -25 0 -50 7 -35 8 -47 16 -49 33 -4
27 -44 30 -42 3 2 -14 -3 -16 -20 -11 -11 3 -27 11 -33 16 -9 7 -18 6 -28 -2
-38 -32 -5 -60 112 -96 43 -13 87 -24 99 -24 15 0 20 -6 20 -22 -1 -16 5 -24
20 -26 18 -3 21 -13 30 -122 5 -66 7 -147 4 -181 -5 -49 -2 -70 12 -98 10 -19
18 -41 18 -47 0 -19 30 -26 37 -9 9 26 32 -14 33 -57 0 -27 -5 -40 -20 -48
-13 -7 -20 -21 -20 -39 0 -28 -26 -58 -67 -80 -15 -8 -36 -8 -76 0 -55 11 -56
12 -71 60 -9 26 -16 67 -16 91 -1 64 -46 296 -64 323 -11 17 -28 25 -68 30
-29 3 -65 8 -79 11 l-27 5 20 52 c25 65 21 149 -11 223 -26 60 -82 119 -105
111 -24 -9 -20 -33 16 -95 46 -81 44 -161 -6 -297 -83 -223 -48 -407 71 -368
40 14 37 45 -5 57 -43 12 -60 66 -43 146 15 75 28 85 111 85 37 0 71 -3 74 -6
4 -3 15 -83 26 -177 11 -95 29 -204 41 -242 23 -78 21 -171 -7 -240 -25 -60
-231 -179 -310 -180 -47 0 -65 16 -84 75 -24 75 -50 115 -86 132 -31 15 -36
15 -50 2 -13 -14 -11 -19 15 -47 35 -36 56 -81 66 -140 3 -22 13 -46 20 -52
15 -12 11 -32 -21 -111 -25 -61 -260 -289 -329 -320 -55 -24 -171 -59 -197
-59 -23 0 -23 26 -1 38 26 15 20 101 -12 170 -31 67 -51 92 -77 92 -26 0 -23
-31 8 -92 21 -42 24 -55 15 -71 -9 -14 -9 -26 0 -50 10 -29 8 -41 -16 -97 -14
-36 -31 -79 -37 -97 -6 -17 -36 -64 -68 -105 -42 -55 -62 -72 -78 -71 -13 2
-26 -5 -32 -17 -9 -16 -21 -20 -64 -20 -45 0 -58 -5 -92 -33 -58 -50 -70 -54
-177 -49 l-98 4 6 41 c12 72 44 115 128 173 43 30 85 54 92 54 18 0 30 20 27
42 -2 10 4 28 13 40 13 19 14 39 9 104 -6 77 -5 83 15 93 12 7 45 59 76 121
50 99 60 113 109 145 l53 36 172 -7 c97 -4 178 -12 186 -18 8 -6 27 -42 43
-81 22 -53 34 -71 50 -73 19 -3 22 1 22 34 0 20 -5 76 -12 124 -11 83 -10 89
10 118 12 16 22 35 22 41 0 6 4 19 10 29 16 28 52 134 57 168 7 47 -15 111
-53 154 -34 37 -35 40 -20 68 19 36 31 88 52 225 16 102 16 109 -1 127 -10 11
-23 20 -29 20 -17 0 -104 61 -164 115 -37 33 -65 73 -98 136 -44 85 -124 189
-146 189 -6 0 -28 16 -50 36 -47 42 -73 42 -73 0 0 -24 13 -41 71 -90 72 -62
144 -155 144 -186 0 -9 -7 -40 -16 -69 -17 -57 -40 -84 -135 -155 -51 -38
-307 -172 -314 -164 -10 11 -35 69 -35 81 0 7 12 24 26 38 48 45 67 96 61 164
-10 110 -57 199 -88 168 -9 -9 -8 -37 5 -119 l17 -107 -48 -61 c-129 -166
-163 -192 -285 -221 -112 -26 -146 -21 -261 39 -56 29 -120 64 -143 76 -23 14
-48 21 -57 17 -45 -17 -2 -60 165 -160 103 -62 103 -62 122 -120 l19 -59 -43
-81 c-41 -79 -42 -84 -36 -147 3 -36 9 -75 12 -87 l6 -22 -62 20 c-66 20 -187
25 -252 10 -21 -5 -55 -24 -75 -42 -37 -32 -38 -32 -41 -11 -2 12 -13 27 -24
33 -17 9 -24 8 -34 -6 -12 -17 -14 -17 -20 -2 -10 27 -182 159 -201 155 -10
-2 -19 -13 -21 -24 -2 -16 16 -38 67 -84 84 -75 138 -167 119 -204 -6 -11 -17
-24 -24 -29 -19 -11 -104 -127 -104 -143 0 -27 62 -83 113 -102 73 -27 237
-51 332 -49 67 1 92 -3 153 -28 73 -29 91 -53 35 -47 -40 4 -57 -17 -43 -52
17 -46 12 -54 -52 -88 -44 -23 -64 -40 -68 -58 -3 -13 -19 -32 -36 -42 -30
-18 -31 -18 -30 4 1 18 -11 26 -71 49 -62 23 -117 51 -173 88 -12 8 -9 14 13
32 18 14 27 29 25 43 -5 37 -41 31 -98 -18 -69 -59 -153 -91 -223 -87 -25 1
-105 78 -128 123 -24 46 -24 112 -1 158 19 39 41 47 133 49 37 1 61 6 69 16
21 25 -5 42 -83 56 -56 10 -78 19 -98 40 -34 36 -55 124 -41 170 6 19 13 52
17 74 8 48 77 184 108 213 46 42 212 121 307 145 127 33 162 38 178 28 7 -4
23 -37 35 -72 17 -50 26 -64 42 -64 18 0 20 6 17 58 -3 73 -24 124 -57 139
-35 16 -219 -15 -402 -68 l-23 -6 26 58 c15 33 44 101 65 152 36 87 98 177
164 234 68 60 197 109 327 124 l57 6 36 -56 c19 -30 40 -67 45 -81 11 -28 36
-43 51 -28 12 12 -18 173 -37 194 -32 36 -11 58 121 122 55 26 152 57 181 57
6 0 17 -27 24 -60 15 -71 29 -94 53 -84 18 7 20 24 8 96 -7 44 -6 47 16 53 23
5 32 38 14 50 -15 8 -239 7 -254 -2 -6 -4 -19 -8 -27 -10 -8 -1 -16 -7 -18
-12 -2 -6 -9 -11 -14 -11 -15 0 -156 -86 -188 -115 -14 -12 -54 -29 -90 -38
-36 -8 -74 -18 -85 -22 -29 -10 110 122 170 162 115 75 349 165 433 165 34 0
120 31 132 47 3 4 17 14 32 23 l27 18 17 -45 c9 -25 23 -50 31 -56 7 -7 18
-31 24 -55 6 -24 36 -81 66 -127 l54 -82 -7 -77 c-6 -68 -4 -78 10 -84 26 -10
35 5 50 87 16 80 16 78 -38 159 -30 46 -100 222 -111 281 -9 51 12 64 131 83
124 20 160 20 248 1 73 -15 191 -79 213 -113 6 -11 35 -33 65 -50 62 -35 118
-85 118 -105 0 -7 16 -45 35 -84 19 -39 35 -74 35 -76 0 -3 -9 -3 -20 0 -17 5
-20 0 -20 -31 0 -27 9 -45 35 -74 34 -39 34 -39 37 -148 3 -98 5 -109 22 -112
36 -7 46 24 46 149 0 152 -11 205 -64 314 -24 50 -49 106 -56 125 -7 19 -21
42 -31 51 -10 9 -15 19 -12 23 3 3 0 12 -6 20 -10 12 -6 22 23 54 19 21 51 76
71 122 20 46 43 89 53 96 19 15 51 10 102 -15z m-1765 -180 c-13 -11 -107 -42
-112 -37 -5 4 95 45 112 45 6 1 6 -2 0 -8z m-232 -121 c-3 -11 -13 -25 -23
-30 -9 -5 -23 -23 -30 -40 -7 -16 -15 -30 -19 -30 -3 0 -16 -3 -29 -6 -18 -5
-21 -3 -16 10 9 23 -24 33 -43 13 -12 -12 -14 -19 -5 -30 9 -11 2 -18 -34 -35
-47 -23 -44 -24 -58 21 -4 15 91 72 198 119 34 14 62 27 63 27 0 1 -1 -8 -4
-19z m2397 -160 c0 -5 -4 -10 -10 -10 -5 0 -10 5 -10 10 0 6 5 10 10 10 6 0
10 -4 10 -10z m-2702 -15 c-5 -25 -161 -154 -185 -155 -21 0 -27 -8 -25 -35 1
-5 -13 -27 -31 -47 l-32 -38 -1 65 -2 66 49 42 c51 44 181 116 212 117 11 0
17 -6 15 -15z m2847 -135 c-3 -5 -10 -10 -16 -10 -5 0 -9 5 -9 10 0 6 7 10 16
10 8 0 12 -4 9 -10z m-3025 -34 c0 -3 -4 -8 -10 -11 -5 -3 -10 -1 -10 4 0 6 5
11 10 11 6 0 10 -2 10 -4z m-160 -62 c-10 -25 -152 -195 -158 -189 -7 7 21 48
68 100 27 30 56 68 65 85 19 37 39 41 25 4z m2224 -204 c25 -12 48 -30 51 -40
3 -10 -1 -47 -9 -82 -8 -34 -18 -85 -21 -111 -4 -27 -12 -50 -19 -53 -7 -3
-39 13 -72 34 -87 58 -182 105 -199 98 -37 -14 -18 -34 185 -187 135 -102 170
-137 170 -173 0 -11 -24 -72 -54 -135 -30 -64 -60 -129 -66 -145 l-11 -29
-110 6 c-61 3 -113 8 -116 10 -2 3 7 21 21 41 24 35 66 146 66 174 0 20 -56
99 -76 106 -10 4 -23 1 -30 -6 -11 -11 -8 -23 14 -66 l27 -53 -28 -53 c-36
-69 -69 -100 -164 -152 l-77 -42 -28 39 c-15 21 -68 72 -117 114 -86 74 -90
79 -111 146 -17 57 -31 81 -74 125 -37 38 -58 53 -69 48 -27 -10 -20 -33 27
-90 33 -41 46 -67 55 -112 15 -79 42 -116 121 -170 92 -62 120 -91 120 -123 0
-15 -4 -30 -9 -34 -5 -3 -17 -29 -27 -58 -18 -56 -65 -147 -75 -147 -4 0 -29
19 -55 43 -55 47 -157 102 -173 92 -23 -14 -7 -39 79 -123 89 -87 90 -87 105
-161 13 -64 13 -77 1 -95 -29 -44 -76 -82 -142 -116 -62 -32 -76 -35 -146 -34
-87 2 -131 22 -172 77 -36 50 -37 62 -7 98 l28 33 59 -13 c99 -21 93 -17 83
-62 -11 -48 -6 -59 26 -59 35 0 70 71 66 131 -1 11 -33 27 -103 52 -57 19
-110 35 -118 35 -8 0 -55 17 -105 37 -61 26 -108 39 -145 40 -30 1 -63 6 -73
10 -10 4 -23 3 -28 -2 -15 -15 -289 45 -289 62 0 18 30 71 71 127 107 144 285
214 406 159 57 -27 130 -96 158 -151 45 -90 78 -89 88 2 6 48 2 62 -48 174
-57 126 -67 177 -39 188 9 4 14 13 10 21 -8 23 48 126 100 185 26 28 85 74
132 103 46 28 96 66 109 84 29 38 39 41 48 14 3 -11 15 -23 26 -26 10 -4 19
-12 19 -19 0 -22 54 -64 117 -90 109 -46 151 -76 181 -133 21 -41 32 -53 51
-53 21 0 23 3 17 33 -3 17 -9 49 -12 70 -6 31 -17 47 -58 79 -28 23 -79 54
-114 70 l-62 30 82 42 c179 89 358 225 358 271 0 39 12 35 71 -24 32 -33 79
-69 103 -81z m1085 -37 c1 -24 -3 -43 -9 -43 -5 0 -10 24 -10 53 0 28 -2 70
-5 92 -4 37 -3 37 9 -10 8 -27 15 -69 15 -92z m-3352 50 c-16 -32 -33 -104
-43 -178 -6 -53 -41 -115 -84 -152 l-25 -21 21 -24 c12 -12 24 -31 27 -40 11
-31 45 -22 56 15 5 17 10 25 10 16 1 -23 77 -89 101 -89 26 0 26 -1 -10 -68
-16 -31 -42 -83 -56 -115 -14 -31 -35 -62 -46 -68 -11 -6 -38 -29 -61 -51 -36
-35 -45 -39 -75 -33 -18 3 -40 9 -48 12 -28 11 -29 -29 0 -54 15 -12 25 -27
22 -32 -3 -5 1 -14 9 -21 19 -16 39 -7 110 50 28 22 52 40 55 40 3 0 4 -31 2
-69 -3 -43 1 -77 8 -92 13 -23 24 -90 23 -139 -1 -14 -13 -51 -28 -82 -23 -52
-30 -58 -56 -58 -48 0 -100 33 -163 105 l-58 66 6 52 c4 29 14 76 23 106 19
61 26 48 -62 110 -34 24 -44 39 -60 92 -11 35 -20 82 -19 105 1 50 54 153 99
192 44 39 48 56 19 83 -30 28 -30 62 0 115 34 60 107 156 113 150 3 -3 -14
-45 -37 -93 -34 -69 -44 -101 -46 -148 -9 -186 -17 -249 -35 -279 -34 -56 -20
-87 31 -66 23 10 34 8 69 -9 90 -46 128 -8 45 44 l-47 30 6 125 c4 69 12 143
17 165 6 22 15 56 19 76 10 45 38 91 113 186 62 77 77 90 55 46z m1153 -312
c0 -5 -7 -14 -15 -21 -8 -7 -15 -10 -15 -7 0 3 -3 12 -6 21 -4 12 0 16 15 16
12 0 21 -4 21 -9z m2229 -205 c-1 -113 -7 -118 -61 -57 -38 44 -50 52 -74 49
-21 -2 -30 -9 -32 -25 -2 -15 2 -23 11 -23 20 0 66 -55 89 -107 10 -23 19 -66
21 -96 2 -48 -2 -61 -30 -101 -18 -26 -33 -57 -33 -69 0 -18 -56 -126 -75
-146 -15 -14 -58 16 -91 64 -45 66 -68 69 -72 9 -3 -36 2 -47 34 -83 27 -30
45 -41 66 -41 33 0 38 -26 11 -58 -16 -18 -202 -108 -207 -100 -2 2 -8 22 -15
46 -12 43 -34 63 -52 45 -5 -5 -12 -37 -15 -72 -7 -61 -10 -66 -68 -126 -53
-54 -68 -63 -109 -69 -32 -5 -53 -3 -63 5 -16 13 -19 49 -4 49 6 0 27 17 48
38 29 29 43 55 56 103 l18 64 42 2 c61 2 103 23 168 85 60 56 78 89 78 141 0
18 4 37 8 43 4 6 41 19 83 28 92 20 115 36 140 93 31 73 5 86 -53 25 -31 -32
-51 -43 -122 -62 -47 -12 -90 -28 -96 -35 -5 -7 -14 -36 -20 -64 -11 -59 -31
-92 -90 -144 -35 -33 -46 -37 -93 -37 -75 0 -82 7 -68 69 15 68 14 71 -8 71
-22 0 -51 -35 -51 -61 0 -9 -7 -19 -15 -23 -21 -8 -19 -39 5 -69 24 -30 25
-47 5 -115 -11 -38 -26 -59 -52 -79 -19 -16 -51 -41 -70 -57 -33 -28 -36 -29
-84 -18 -61 14 -106 15 -114 2 -3 -5 -12 -7 -19 -4 -7 3 -37 -5 -67 -17 -30
-12 -68 -25 -85 -30 -18 -5 -44 -19 -60 -32 -16 -12 -42 -26 -59 -32 -21 -7
-31 -18 -33 -34 -2 -14 -11 -35 -19 -48 -20 -30 -10 -73 17 -73 12 0 41 27 75
69 61 75 63 77 226 120 58 15 93 19 147 14 82 -7 96 -13 88 -40 -7 -20 -141
-103 -167 -103 -9 0 -21 11 -27 25 -18 40 -62 26 -62 -20 0 -59 -108 -171
-196 -204 l-52 -20 -51 24 c-28 14 -55 25 -60 25 -12 0 -81 80 -81 93 0 5 22
39 49 76 26 36 71 100 99 142 46 69 55 77 89 82 60 8 227 72 276 106 83 57
306 314 307 354 0 10 8 21 18 24 9 4 22 13 28 21 5 7 38 20 73 28 46 11 89 32
160 79 53 35 105 72 117 82 26 24 67 156 62 200 -2 18 -4 33 -3 33 0 1 45 5
99 10 79 7 103 13 119 29 33 33 47 11 46 -73z m336 -92 c251 -68 315 -87 315
-96 0 -11 -150 -117 -248 -175 -144 -85 -499 -249 -512 -237 -2 3 5 13 16 22
12 9 43 71 70 137 37 94 49 137 54 200 4 44 14 97 23 117 10 21 17 48 17 61 0
46 -18 48 265 -29z m-3164 -191 c13 -16 12 -17 -3 -4 -17 13 -22 21 -14 21 2
0 10 -8 17 -17z m-536 -550 c3 -16 18 -41 33 -56 l26 -28 -41 15 c-106 37
-153 79 -100 89 59 11 75 8 82 -20z m477 -134 l33 -20 -33 6 c-26 5 -38 2 -63
-19 -37 -32 -131 -60 -171 -52 -47 9 -98 37 -110 60 -9 17 -8 19 3 9 7 -7 32
-13 55 -13 49 0 202 28 224 41 21 12 26 11 62 -12z m517 -36 c13 3 29 -5 47
-24 33 -34 107 -59 177 -59 43 0 48 -2 42 -17 -4 -10 -10 -40 -14 -68 l-6 -50
-43 -3 c-46 -3 -178 39 -264 86 -39 20 -49 31 -54 59 -7 40 12 75 53 95 25 12
29 12 36 -5 5 -13 14 -18 26 -14z m-391 -23 c29 -11 67 -20 85 -20 43 -1 19
-14 -51 -29 -43 -9 -58 -8 -82 4 -37 19 -45 32 -30 50 16 19 15 19 78 -5z
m2922 -2291 c6 -10 6 -27 1 -41 -8 -22 -9 -21 -19 12 -5 19 -13 44 -18 55 -7
18 -6 19 10 6 9 -8 21 -22 26 -32z m776 -3770 c112 -20 205 -51 199 -66 -3 -9
43 -75 113 -161 124 -156 198 -259 191 -266 -3 -3 -36 -10 -74 -16 -109 -17
-289 -67 -412 -115 -130 -51 -410 -188 -395 -193 6 -2 75 6 154 17 79 11 186
25 238 31 120 14 611 24 627 13 21 -15 46 -134 45 -219 0 -62 -6 -95 -25 -142
-37 -92 -84 -149 -132 -163 -22 -6 -57 -20 -77 -30 -27 -14 -58 -19 -113 -19
-81 0 -276 -19 -520 -50 -82 -10 -178 -22 -213 -25 -35 -4 -62 -8 -60 -10 2
-2 104 -24 228 -50 124 -25 241 -50 261 -55 l36 -10 12 -96 c29 -224 8 -449
-58 -603 -78 -184 -237 -349 -436 -455 -48 -25 -57 -26 -200 -26 -271 0 -497
36 -918 147 -137 35 -250 63 -252 61 -3 -2 57 -53 133 -113 75 -60 191 -152
257 -205 140 -111 275 -237 275 -256 0 -19 -149 -337 -211 -451 -109 -200
-282 -332 -500 -382 -104 -24 -291 -109 -408 -185 -60 -38 -72 -43 -79 -30 -7
13 -12 9 -22 -18 -7 -18 -36 -57 -62 -86 -27 -29 -64 -84 -82 -122 l-32 -70
-24 263 -24 262 -69 67 c-64 61 -69 69 -63 98 3 18 15 45 27 62 13 17 27 63
36 111 31 180 127 260 428 358 94 30 145 52 183 81 28 21 52 40 52 43 0 2 -15
34 -34 72 -50 99 -66 155 -66 231 1 122 61 203 199 268 42 20 127 62 188 92
107 53 113 58 119 92 14 85 27 114 71 161 90 96 225 137 546 165 l77 6 141
200 141 201 -33 25 c-63 47 -195 187 -224 236 -74 126 -95 247 -77 429 7 62
16 173 22 247 10 132 39 280 82 410 33 104 34 105 66 69 l28 -32 105 26 c75
19 140 45 234 93 72 37 148 73 170 80 50 16 133 17 211 3z m-2456 -4817 c0
-13 -4 -20 -10 -17 -5 3 -10 21 -10 38 0 24 3 28 10 17 5 -8 10 -25 10 -38z"/>
<path d="M12528 22743 c-20 -5 -23 -34 -8 -64 13 -23 53 -25 71 -3 11 13 11
20 -2 42 -15 27 -30 34 -61 25z m52 -33 c0 -15 -7 -20 -25 -20 -41 0 -30 37
13 39 6 1 12 -8 12 -19z"/>
<path d="M19474 20425 c-4 -9 0 -23 9 -32 21 -21 49 -9 45 19 -4 28 -45 38
-54 13z m46 -10 c0 -8 -9 -15 -20 -15 -13 0 -18 5 -14 15 4 8 12 15 20 15 8 0
14 -7 14 -15z"/>
<path d="M19113 19548 c-19 -24 -21 -72 -6 -110 12 -31 13 -41 3 -53 -18 -21
40 -132 133 -256 99 -132 96 -126 82 -211 -13 -76 -7 -108 20 -108 17 0 31 25
51 88 28 95 19 130 -81 307 -19 33 -44 90 -56 128 -12 37 -26 70 -31 74 -6 3
-21 31 -35 62 -24 55 -49 91 -63 91 -4 0 -12 -6 -17 -12z"/>
<path d="M13324 11189 c-211 -10 -466 -34 -689 -65 -236 -33 -225 -30 -226
-68 0 -17 -8 -83 -17 -147 l-17 -116 95 -32 c52 -18 148 -55 213 -83 l117 -50
124 46 c640 241 1254 374 1891 409 l220 12 -175 23 c-530 70 -1053 94 -1536
71z"/>
<path d="M8032 17313 c3 -29 32 -43 50 -25 18 18 -1 52 -28 52 -22 0 -25 -4
-22 -27z m43 7 c3 -6 -1 -13 -10 -16 -19 -8 -30 0 -20 15 8 14 22 14 30 1z"/>
<path d="M7539 16470 c-9 -31 -10 -49 -1 -78 8 -24 8 -38 2 -40 -31 -11 10
-129 105 -301 l67 -121 -21 -62 c-25 -73 -27 -114 -6 -122 20 -7 43 18 72 83
33 73 28 149 -14 241 -36 78 -59 146 -72 220 -5 30 -19 73 -30 95 -12 21 -21
45 -21 53 0 27 -31 72 -50 72 -14 0 -23 -11 -31 -40z"/>
<path d="M15037 13854 c-10 -11 5 -34 22 -34 23 0 31 9 24 26 -5 14 -34 19
-46 8z m33 -14 c0 -5 -4 -10 -10 -10 -5 0 -10 5 -10 10 0 6 5 10 10 10 6 0 10
-4 10 -10z"/>
<path d="M14857 13143 c-11 -10 -8 -62 4 -85 6 -11 12 -33 13 -48 2 -34 49
-94 149 -189 l77 -74 0 -64 c0 -49 4 -65 16 -70 24 -9 35 9 41 69 8 75 -7 111
-75 190 -32 37 -68 87 -80 111 -12 24 -32 55 -44 69 -13 14 -36 42 -51 62 -28
36 -38 42 -50 29z"/>
</g>
</svg>
